<svg xmlns="http://www.w3.org/2000/svg" viewBox="0 0 1697.57 762.73"><defs><style>.cls-1,.cls-2{fill:none;stroke-linecap:round;stroke-linejoin:round;stroke-width:6px}.cls-1{stroke:#2e186a}.cls-2{stroke:#fff}.cls-3{fill:#2e186a}.cls-4{fill:oklch(68.5% 0.169 237.323)}</style></defs><g id="Layer_2" data-name="Layer 2"><g id="outline_III" data-name="outline III"><g id="screen"><path id="screen-2" data-name="screen" class="cls-1" d="M870.18 541.52H264c-11.73 0-21.23-8.94-21.23-20V113.6h854.27v28.64"/><g id="options_icon" data-name="options icon"><path class="cls-2" d="M1049.31 83.28h16.34M1049.31 92.32h16.34M1049.31 101.37h16.34"/></g><g id="shape"><path class="cls-3" d="M681.22 22.27h-57.59a26.47 26.47 0 0 1 4.37 4.59 2.43 2.43 0 0 1 .14.2l26 41.14h34.51a3 3 0 0 1-.22-1.13V28.86c.01-3.63-3.23-6.59-7.21-6.59Zm-12 28.52h-4.15v4.15a3 3 0 0 1-3 3 3 3 0 0 1-3-3v-4.1H655a3 3 0 0 1 0-6h4.15V40.7a3 3 0 0 1 3-3 3 3 0 0 1 3 3v4.09h4.09a3 3 0 0 1 0 6Z"/><path class="cls-3" d="M1100.26 74.2H652.49a3 3 0 0 1-2.49-1.4l-26.86-42.43a21.21 21.21 0 0 0-13.53-8.1h-3.53a3 3 0 0 1-1.23-.27H431.44a21.18 21.18 0 0 0-16.82 8.37L387.8 72.8a3 3 0 0 1-2.52 1.4l-145.46.66.46 45.69h860V74.19ZM590.38 44.89a3 3 0 1 1 3.94-4.52l4 3.48 4.07-3.4a3 3 0 0 1 3.85 4.6l-3.34 2.79 3.28 2.86a3 3 0 0 1-2 5.26 3 3 0 0 1-2-.74l-4-3.48-4.06 3.4a3 3 0 0 1-3.85-4.6l3.34-2.79ZM305.7 100.22h-16.36l4 3.68a3 3 0 1 1-4 4.43l-9.26-8.41a3 3 0 0 1-1.7-2.7s0-.06 0-.09v-.08a3 3 0 0 1 1-2.21l9.62-8.9a3 3 0 0 1 4 4.41l-4.18 3.87h16.88a3 3 0 0 1 0 6Zm45.94-3a3 3 0 0 1-1.71 2.7l-9.26 8.41a2.94 2.94 0 0 1-2 .79 3 3 0 0 1-2.23-1 3 3 0 0 1 .21-4.23l4-3.68h-16.33a3 3 0 0 1 0-6h16.85L337 90.35a3 3 0 0 1 4.07-4.41l9.62 8.9a3 3 0 0 1 1 2.21s0 .06 0 .08-.05.06-.05.09Zm617.22 5.52a5 5 0 0 1-5 5H389.78a5 5 0 0 1-5-5v-8.82a5 5 0 0 1 5-5h574.09a5 5 0 0 1 5 5Zm50.46-8.29-5 2.88 2 6a3 3 0 0 1-4.35 3.53l-5.42-3.12-5.53 4a3 3 0 0 1-3.53 0 3 3 0 0 1-1.09-3.35l2-6.28-5.34-3.88a3 3 0 0 1 1.76-5.43h6.6l2-6.28a3 3 0 0 1 5.71 0l2 6.28h6.6a3 3 0 0 1 1.5 5.6Z"/><path class="cls-3" d="m383.61 68.2 26-41.14a2.43 2.43 0 0 1 .14-.2A27.22 27.22 0 0 1 431.44 16h174.88a26.89 26.89 0 0 1 3.71.27h71.19c7.29 0 13.22 5.65 13.22 12.59v38.21a2.85 2.85 0 0 1-.23 1.13h406.11V22c0-12.15-9.58-22-21.39-22L260.69 1c-11.81 0-21.39 9.86-21.39 22l.46 45.84Zm675.66-37.65 5.62-4.1h-.31a3 3 0 0 1 .69-6l7.76.9a3 3 0 0 1 2.09 1.22 3 3 0 0 1 .31 3l-1.43 7.24a3 3 0 0 1-2.93 2.4 3.23 3.23 0 0 1-.61-.06 3 3 0 0 1-2.34-3.54v-.12l-5.34 3.91a3 3 0 0 1-3.55-4.85Zm-20.8 15.63 1.5-7.66a3 3 0 0 1 5.89 1.15l-.06.3 5.62-4.1a3 3 0 0 1 3.54 4.84l-5.35 3.91h.12a3 3 0 0 1-.31 6h-.33l-7.27-.78h-.34a3 3 0 0 1-2.42-1.22 3 3 0 0 1-.59-2.44Zm-677.83-23a13 13 0 1 1-13 13 13 13 0 0 1 13-12.97Zm-42.87 0a13 13 0 1 1-13 13 13 13 0 0 1 13-12.97Zm-42.87 0a13 13 0 1 1-13 13 13 13 0 0 1 13-12.97Z"/></g><g id="search_tab" data-name="search tab"><rect class="cls-1" x="347.94" y="287.3" width="177.43" height="107.82" rx="11"/><g id="search"><path class="cls-4" d="M944.41 201.18H355.54a8.54 8.54 0 0 0-8.54 8.53v41.73a8.54 8.54 0 0 0 8.54 8.53h588.87a8.54 8.54 0 0 0 8.53-8.53v-41.73a8.54 8.54 0 0 0-8.53-8.53ZM796.85 254H355.54a2.54 2.54 0 0 1-2.54-2.53v-41.76a2.54 2.54 0 0 1 2.54-2.53h441.31Zm99.08-3a4.1 4.1 0 0 1-1 1.82l-.43.47a3.55 3.55 0 0 1-2.49 1.3 1.77 1.77 0 0 1-1.21-.45l-13.78-12a18.32 18.32 0 0 1-5.28 1.94 18.48 18.48 0 0 1-21.84-14.45 18.52 18.52 0 1 1 36.29-7.38 18.61 18.61 0 0 1-3.85 15.46l13 11.34a2 2 0 0 1 .59 1.89Z"/><path class="cls-4" d="M868.09 214.52a10.86 10.86 0 0 0-2.27.23 11.35 11.35 0 0 0 2.24 22.47 11.68 11.68 0 0 0 2.28-.23 11.35 11.35 0 0 0-2.25-22.47Z"/><rect class="cls-4" x="369.7" y="218.63" width="172.69" height="23.33" rx="3.85"/></g><rect class="cls-1" x="347.54" y="412.93" width="175.55" height="12.72" rx="3.85"/><rect class="cls-4" x="562.3" y="287.3" width="177.43" height="107.82" rx="11"/><rect class="cls-4" x="561.9" y="412.93" width="175.55" height="12.72" rx="3.85"/><rect class="cls-1" x="776.66" y="287.3" width="177.43" height="107.82" rx="11"/><rect class="cls-1" x="776.25" y="412.93" width="175.55" height="12.72" rx="3.85"/><path class="cls-1" d="M347.94 538.53v-62a11 11 0 0 1 11-11h155.44a11 11 0 0 1 11 11v62M562.3 538.53v-62a11 11 0 0 1 11-11h155.43a11 11 0 0 1 11 11v62M776.66 538.53v-62a11 11 0 0 1 11-11h155.43a11 11 0 0 1 6.41 2.05"/></g></g><g id="woman"><g id="body"><path id="neck" class="cls-1" d="M1040.37 390.07c1.65 9.4 3.81 21.75 6 34.24C1077 421 1122 409.84 1148.84 399c-6.06-30.76-12.8-65-12.8-65"/><path id="jumper" class="cls-1" d="M609.86 637.31c-26.82 46.19 8.85 122.42 8.85 122.42l756.29-1.65a51.7 51.7 0 0 0 51.59-55.24c-4.59-66.29-78.16-162.19-105.23-198.84-32.19-43.61-82.69-72.81-143.16-78-3.42-23.38-6.91-42.56-6.91-42.56 1.35 16.79-133.61 50.54-154.7 39.91l2.27 16.26c-11.05 2.78-23.34 6.48-37.55 11.5-69.39 24.5-204 196.91-204 196.91s-13.92-38.94-61.18-47"/><g id="lines"><path class="cls-1" d="M1039.34 683.42s159.13-45 194.55-47.88c0 0 65.35-12.72 93.54 20.67M1195.14 572.5l36.22 61.81M777.31 648s12.29 71.13-64 96.29M784.4 646.24s72 26.89 63.32 73.73M957.62 577.85c-1.82 5.81-22.51 78.56-4.25 130.61M1181.41 438.62s9.33 16-24 33M1173.31 433.42s-5.78 30.65-74.89 40.19"/></g><g id="hand"><path class="cls-1" d="M1011.3 715.2s-21 6-34.75 14.58-32.25 20.88-31.41 23.94 15.74 6.61 24.67 2.06c20.35-19.12 47.44-23.28 47.44-23.28-2.88-.59-25.56 9-35.58 15-18.81 11.35-18.76 11.71 9.79 11.85l89.17-1.25c2.18-48.88-41.29-74.71-41.29-74.71s-41.42-1.2-69.65 15.74c-16.84 10.11-41.25 27.72-42.51 33.87-1.08 5.29 3.92 5.76 10.05 4.58 0 0-13.76 13.21 8.84 12.35"/><path class="cls-1" d="M951.15 747.19c-12.46 4.55-20.24 1.31-15.94-6.31 2.6-4.62 51-34.63 67.57-37.53"/></g><g id="head"><path id="face" class="cls-1" d="M1138 332.61c-35.14 53.24-80.21 62-110.11 54.26-45.65-11.57-62.3-91.95-26.15-159.59 19.07-35.69 42.66-56.91 67.56-65.33"/><path id="ear" class="cls-1" d="M1130.6 278.56s42.93-3.19 32 31.1-43.12 18.17-43.12 18.17"/><ellipse id="eye_II" data-name="eye II" class="cls-3" cx="1007.58" cy="264.96" rx="9.87" ry="6.38" transform="rotate(-76.62 1007.631 264.938)"/><ellipse id="eye" class="cls-3" cx="1060.52" cy="271.99" rx="9.87" ry="6.38" transform="rotate(-76.62 1060.578 271.964)"/><path id="nose" class="cls-1" d="M1031.46 313.11 1010 308.8l28.28-61.57"/><path id="brow" class="cls-1" d="M1085.8 249.33s-13-17.62-27.63-10.54"/><path id="mouth" class="cls-1" d="M1024.14 335.22s18.42 8.83 29.21-5.49c6.91-9.16 12.91 18.18-11.1 24.5-24.73.83-18.11-19.01-18.11-19.01Z"/><path id="brow-2" data-name="brow" class="cls-1" d="M1019.19 233.53s-16.37-15.21-29.57-3.07"/><g id="hair"><g id="ponytail"><path id="ponytail-2" data-name="ponytail" class="cls-3" d="M1296.76 120a109.69 109.69 0 0 0-19.12 4.91c-46.84 16.62-73.83 61.05-60.28 99.23 13.36 37.67 61.19 55.19 107.45 39.7 7.23 25.85 8.52 70.31-36.74 122.52-7.78 9 1.89 22.28 12.79 17.56 43.62-18.89 102.36-51.82 121.86-97.91 30.4-71.87 27.03-227.24-125.96-186.01Z"/><rect class="cls-4" x="1203.33" y="201.01" width="36.92" height="47.09" rx="18.06" transform="rotate(72.9 1221.824 224.59)"/></g><path id="hair-2" data-name="hair" class="cls-3" d="M1206.05 205.85c-8-24.81-36.35-54-119-71.85a7.64 7.64 0 0 0-3 .24c-41.87-9-109.4 14.48-108.06 93.15a96.39 96.39 0 0 0 10.22 41.23 168 168 0 0 1 15.51-41.34c17.83-33.37 39.62-54.06 62.73-63.5-5.07 27 5.41 69.78 65 117.25l.36.65.71-3.12s21.92-1.62 30.43 10l.35.49.24.37.3.49c.08.13.16.26.23.39l.29.55c.09.19.19.38.28.58s.2.45.29.68l.2.51.17.48.18.57c0 .15.08.31.13.46l.15.62c0 .14.06.29.09.43a18.36 18.36 0 0 1 .35 2.53V301.52c-.06.77-.16 1.56-.29 2.38a39.49 39.49 0 0 1-1.4 5.78c-5.13 16-14.88 21-23.81 21.83.08-.36 1.28 20 1 20.34 11.81-4 24.64-11.72 38.3-24.7 40-37.99 45-86.45 28.05-121.3Z"/></g></g><g id="collar"><path class="cls-3" d="m1055.2 423.19.31-.05ZM1059.83 422.49l.38-.06ZM1046.37 424.31ZM1046.45 424.3ZM1014.19 423.13c5.27 2.66 17.11 2.75 32.18 1.1-1-5.82-2-11.62-3-17.14-20.58 5.91-31.63 10.65-29.18 16.04ZM1132.9 404.77l-3.08 1ZM1129.82 405.78l-.23.07ZM1148.84 399l-.22.09ZM1129.59 405.85l-2.92.92ZM1133.59 404.54l-.69.23ZM1126.67 406.77l-.81.26ZM1174.39 382.44c-1.59-4.5-7.9-6.84-29-2.87 1.26 6.41 2.55 13 3.81 19.38 14.58-5.9 24.35-11.74 25.19-16.51ZM1125.86 407l-3.2 1ZM1142.68 401.34l-2.55.93ZM1139.56 402.47c-1 .35-1.94.69-2.94 1 1-.31 1.98-.65 2.94-1ZM1140.13 402.27l-.57.2ZM1136.62 403.51l-.3.1ZM1148.62 399c-.79.32-1.59.64-2.41.95.79-.27 1.62-.59 2.41-.95ZM1136.32 403.61l-2.73.93ZM1143 401.21l-.34.13ZM1146.21 400l-.42.17ZM1145.79 400.16l-2.77 1Z"/></g></g><g id="hand_with_cursor" data-name="hand with cursor"><path id="hand-2" data-name="hand" class="cls-1" d="M676 586.64s-18.7-23.68-6-28.3c28.35-10.29 105.52 129.9 22.91 134.41-4.11.16-44.38 8-68.28-24.87-18-27.48-19.32-56.79-6.61-73.13s57.98-8.11 57.98-8.11Z"/><path class="cls-3" d="M645.83 586.92a95 95 0 0 1 24.57 1.59l-18.06-71.33 41.07 11.73a6.22 6.22 0 0 0 6.87-9.46l-76-112.53a7.6 7.6 0 0 0-13.76 2.77l-25.61 129.1a6.22 6.22 0 0 0 9.69 6.3l34.48-24.29Z"/><g id="fingers"><path class="cls-1" d="M654.58 673.87s32.34 2.61 42.95-2.55 11.74-8.32 8.25-15.32-37.44-9.35-61.51-2.38"/><path class="cls-1" d="M634.18 629.89s32-7.38 55.79-2.43c22.1 3.81 28.11 24 12.91 26"/><path class="cls-1" d="M623.93 610.87s36.55-13.52 64.56-2 16.58 25.29 16.58 25.29"/><path class="cls-1" d="M673.19 585.63c32.43 13.77 24.14 27.79 24.14 27.79"/></g></g></g><path id="line" class="cls-1" d="M1694.57 758.96H3"/></g></g></svg>