<svg xmlns="http://www.w3.org/2000/svg" version="1.1" id="Layer_1" x="0" y="0" viewBox="0 0 1576.4 785.7" style="enable-background:new 0 0 1576.4 785.7" xml:space="preserve"><style>.st0{fill:none;stroke:#2e186a;stroke-width:6;stroke-linecap:round;stroke-linejoin:round}.st1{fill:#2e186a}.st2{fill:oklch(68.5% 0.169 237.323)}.st3,.st4,.st5{fill:none;stroke:oklch(68.5% 0.169 237.323);stroke-width:6;stroke-linecap:round;stroke-linejoin:round}.st4,.st5{stroke-width:8}.st5{stroke-width:4.5}</style><g id="Layer_2_1_"><g id="outline"><g id="screen"><path id="shape" class="st0" d="M412.9 309.3v-277C412.9 16.1 426 3 442.2 3h694.7c16.2 0 29.3 13.1 29.3 29.3 0 0 0 0 0 0v438.2"/><path id="line" class="st0" d="M448.7 477.4V33.8c0-15.1 11.7-27.3 26.2-27.3"/><path id="line-2" class="st0" d="M702.6 588.4v80.9"/><path id="line-3" class="st0" d="M702.6 4.5v455.6"/><g id="code_lines"><g id="more_code_lines"><path class="st1" d="M852.2 51.4h5.4c2.8 0 5 2.2 5 5V67c0 2.8-2.2 5-5 5h-5.4c-2.8 0-5-2.2-5-5V56.4c0-2.8 2.2-5 5-5zM740.4 51.4h95.8c2.8 0 5 2.2 5 5V67c0 2.8-2.2 5-5 5h-95.8c-2.8 0-5-2.2-5-5V56.4c0-2.8 2.3-5 5-5zM740.4 147.1h105.4c2.8 0 5 2.2 5 5v10.6c0 2.8-2.2 5-5 5H740.4c-2.8 0-5-2.2-5-5v-10.6c0-2.7 2.3-5 5-5zM769.6 115.2h169c2.8 0 5 2.2 5 5v10.6c0 2.8-2.2 5-5 5h-169c-2.8 0-5-2.2-5-5v-10.6c0-2.7 2.3-5 5-5zM1069.2 263.9h5.4c2.8 0 5 2.2 5 5v10.6c0 2.8-2.2 5-5 5h-5.4c-2.8 0-5-2.2-5-5v-10.6c0-2.8 2.2-5 5-5zM740.4 83.3h175.1c2.8 0 5 2.2 5 5v10.6c0 2.8-2.2 5-5 5H740.4c-2.8 0-5-2.2-5-5V88.3c0-2.7 2.3-5 5-5zM874.3 51.4h95.8c2.8 0 5 2.2 5 5V67c0 2.8-2.2 5-5 5h-95.8c-2.8 0-5-2.2-5-5V56.4c0-2.8 2.3-5 5-5zM933.8 83.3h112.7c2.8 0 5 2.2 5 5V99c0 2.8-2.2 5-5 5H933.8c-2.8 0-5-2.2-5-5V88.3c0-2.8 2.2-5 5-5z"/></g><g id="code_lines-2"><path class="st1" d="M740.4 231.2h95.8c2.8 0 5 2.2 5 5v10.6c0 2.8-2.2 5-5 5h-95.8c-2.8 0-5-2.2-5-5v-10.6c0-2.7 2.3-5 5-5zM958.6 295.1h86.7c2.8 0 5 2.2 5 5v10.6c0 2.8-2.2 5-5 5h-86.7c-2.8 0-5-2.2-5-5v-10.6c0-2.8 2.2-5 5-5zM740.4 263.1h175.1c2.8 0 5 2.2 5 5v10.6c0 2.8-2.2 5-5 5H740.4c-2.8 0-5-2.2-5-5v-10.6c0-2.7 2.3-5 5-5zM852.2 231.2h118c2.8 0 5 2.2 5 5v10.6c0 2.8-2.2 5-5 5h-118c-2.8 0-5-2.2-5-5v-10.6c0-2.7 2.2-5 5-5zM988.3 231.2h95.8c2.8 0 5 2.2 5 5v10.6c0 2.8-2.2 5-5 5h-95.8c-2.8 0-5-2.2-5-5v-10.6c0-2.7 2.3-5 5-5zM852.2 200.3h5.4c2.8 0 5 2.2 5 5v10.6c0 2.8-2.2 5-5 5h-5.4c-2.8 0-5-2.2-5-5v-10.6c0-2.7 2.2-5 5-5zM740.4 200.3h95.8c2.8 0 5 2.2 5 5v10.6c0 2.8-2.2 5-5 5h-95.8c-2.8 0-5-2.2-5-5v-10.6c0-2.7 2.3-5 5-5zM874.3 200.3h95.8c2.8 0 5 2.2 5 5v10.6c0 2.8-2.2 5-5 5h-95.8c-2.8 0-5-2.2-5-5v-10.6c0-2.7 2.3-5 5-5zM933.8 263.1h120.5c2.8 0 5 2.2 5 5v10.7c0 2.8-2.2 5-5 5H933.8c-2.8 0-5-2.2-5-5v-10.7c0-2.8 2.2-5 5-5z"/></g><g id="shapes"><path class="st1" d="M509.5 212.8h19.9c2.8 0 5 2.2 5 5v10.6c0 2.8-2.2 5-5 5h-19.9c-2.8 0-5-2.2-5-5v-10.6c0-2.8 2.2-5 5-5zM509.5 177.6h58.9c2.8 0 5 2.2 5 5v10.6c0 2.8-2.2 5-5 5h-58.9c-2.8 0-5-2.2-5-5v-10.6c0-2.8 2.2-5 5-5zM509.5 146.8h80.9c2.8 0 5 2.2 5 5v10.6c0 2.8-2.2 5-5 5h-80.9c-2.8 0-5-2.2-5-5v-10.6c0-2.8 2.2-5 5-5zM509.5 115.5h58.9c2.8 0 5 2.2 5 5V131c0 2.8-2.2 5-5 5h-58.9c-2.8 0-5-2.2-5-5v-10.5c0-2.8 2.2-5 5-5zM509.5 82.4h35.2c2.8 0 5 2.2 5 5v10.5c0 2.8-2.2 5-5 5h-35.2c-2.8 0-5-2.2-5-5V87.4c0-2.8 2.2-5 5-5zM561.3 82.4h8.5c1.8 0 3.3 1.5 3.3 3.3v13.9c0 1.8-1.5 3.3-3.3 3.3h-8.5c-1.8 0-3.3-1.5-3.3-3.3V85.7c0-1.8 1.4-3.3 3.3-3.3zM584.2 115.1h8.5c1.8 0 3.3 1.5 3.3 3.3v13.9c0 1.8-1.5 3.3-3.3 3.3h-8.5c-1.8 0-3.3-1.5-3.3-3.3v-13.9c0-1.8 1.5-3.3 3.3-3.3zM608.6 146.8h8.5c1.8 0 3.3 1.5 3.3 3.3V164c0 1.8-1.5 3.3-3.3 3.3h-8.5c-1.8 0-3.3-1.5-3.3-3.3v-13.9c0-1.8 1.5-3.3 3.3-3.3zM585 177.8h8.5c1.8 0 3.3 1.5 3.3 3.3V195c0 1.8-1.5 3.3-3.3 3.3H585c-1.8 0-3.3-1.5-3.3-3.3v-13.9c0-1.8 1.4-3.3 3.3-3.3zM545 212.8h8.5c1.8 0 3.3 1.5 3.3 3.3V230c0 1.8-1.5 3.3-3.3 3.3H545c-1.8 0-3.3-1.5-3.3-3.3v-13.9c0-1.8 1.5-3.3 3.3-3.3zM635 242.7h8.5c1.8 0 3.3 1.5 3.3 3.3v14c0 1.8-1.5 3.3-3.3 3.3H635c-1.8 0-3.3-1.5-3.3-3.3v-14c0-1.8 1.4-3.3 3.3-3.3zM508.2 49.2h73.3c2.8 0 5 2.2 5 5v10.5c0 2.8-2.2 5-5 5h-73.3c-2.8 0-5-2.2-5-5V54.2c0-2.7 2.3-5 5-5z"/></g><path class="st1" d="M621.3 242.8h-48.9c-1.1 1.9-2.9 4.5-5 7.4 2.7-1.8 11.7-8 11.9-3.4.2 2.6-7.7 10.5-13.9 16.5h55.9c2.8 0 5-2.2 5-5v-10.6c0-2.7-2.2-4.9-5-4.9zM509.5 263.3h1.8c5.2-6.6 20-12.2 20-12.2 2.4-1.6 7.1-5.7 10.2-8.4h-32c-2.8 0-5 2.2-5 5v10.6c0 2.8 2.2 5 5 5zM994.2 129c-6.3 2.6-18.8 5.2-20.2 1.1-.6-1.6 14.2-9.1 17.1-9.5s22.1-4.2 22.1-4.2 9.5-.1 17.6-.2c.7 0 1.4 0 2.1.1-.9-.7-1.9-1-3-1h-71.2c-2.8 0-5 2.2-5 5v10.6c0 2.8 2.2 5 5 5h57.9c-.7-3.3-16.1-9.6-22.4-6.9z"/></g></g><g id="sitting_woman"><path id="shape-2" class="st1" d="m299.5 737.6-.1-213.5s-77.7.4-77.9 0l-.2-.2h-84.2v257.3h229v-43.6h-66.6z"/><path id="shoes" class="st2" d="m431 780.2-1 .4h-22.5c-2.2.2-13.8-.3-3.9-6.5 2-.8 18.6-11.5 25.2-12.7s31.9-1.2 32.4-1.2c.3 0 3-7.4 5.5-14.4-4.5-1-9.9-4.7-14.5-8.9.4.8-138.8-2.1-138.8-2.1l1.2 48.4h20.6l1.2-43.1s8.4 42.1 37.1 44c9.1.6 43.9-1.5 71.5-3.6-6.5-.1-11.8-.3-14-.3z"/><g id="hand"><path id="finger" class="st0" d="M535.7 278.9s18.7-5.1 29.4-15.2c6.3-6.1 14.5-14.2 14.3-16.9-.3-5-10.8 2.7-12.5 3.7"/><path id="hand-2" class="st0" d="m529.2 285.3 1.7-4.1c10.1-4.2 16.9-8.7 21.3-12.6 5.7-5.1 21.6-26.3 21.5-28.5-.4-6-10.2-3.5-15.2 7.4"/><path id="hand-3" class="st0" d="M545.8 262.4s8.9-7.7 12-14.1 5.3-11.3 4.2-12.1-6.8.7-9.1 4.4c-2.5 6.4-12.9 15.1-12.9 15.1 1.3-.5 7.7-7.6 10.6-12s3-11.2-6-3.6c0 0-9.5 8.5-13.2 11 0 0-16.7 6.3-20.9 13.4h0c-.9 1.6-3.9 6.5-8.1 13.3"/></g><path id="sleeve" class="st0" d="m469.5 321.2 24.3-44.2 38.3 9.1-40 97.5z"/><path id="shape-3" class="st0" d="m290.1 270.8-21.6.1c-11.3 0-26.7 12-28.4 25.1-3.1 24-12.4 57.1-18.8 84.7-15 46-30.2 114.6.3 143.3.2.4 77.9 0 77.9 0l.1 213.5h154.9s30.6-217.3 23.3-234.2-97.1-66.7-97.1-66.7 39.9-102.8 17.5-134.2c-11.2-15.1-26.3-20.2-38.2-22.5"/><g id="head"><g id="earrings_back"><path class="st3" d="M305.6 265.6c-5.2.6-10.4-5.5-11.7-13.9-.7-4-.2-8.2 1.4-11.9M387.1 260.2c-5.2.6-10.4-5.5-11.7-13.9"/></g><path id="ponytail" class="st1" d="M300.9 173.9c12.2-9 20.3-56.3-12.8-88-33.6-32.1-61.5.7-67.7 9.3s-10.9 32.4 18.1 54.9 48.5 34.1 62.4 23.8z"/><path class="st2" d="m318.7 194.8-.8.5c-4.7 2.9-10.8 1.7-14-2.8L295 180c-3.1-4.1-2.2-10 1.9-13.1.2-.1.3-.2.5-.3l.8-.5c4.7-2.9 10.8-1.7 14 2.8l8.9 12.5c3.1 4.1 2.2 10-1.9 13.1-.2.1-.3.2-.5.3z"/><path id="ear" class="st0" d="M308.6 238.8c-3.3 2-7.4 2.1-10.9.4-5.6-2.5-8.1-9-5.6-14.5v-.1c2.1-4.3 6.8-6.7 11.6-5.8"/><path id="ear-2" class="st0" d="M376.2 215.6c2.8-.8 5.8-.6 8.4.6 5.6 2.5 8.1 9 5.6 14.6-2.3 4.6-7.5 7-12.5 5.7"/><path id="neck" class="st0" d="m348.7 271.3.2 6.2 13.4 3c.8 2.2 1.6 40-33 35.3-22.7-3.1-32.5-26.6-38.6-45.2l20.6 2.4.1-25.3"/><ellipse id="face" transform="rotate(-10.411 341.654 225.384)" class="st0" cx="341.7" cy="225.4" rx="35.7" ry="45.9"/><path id="nose" class="st0" d="m344.9 236.3 6.8-.2c.6 0 1.1-.5 1-1.1v-.2l-4.9-18.5"/><path id="brow_II" class="st0" d="M326 207.1s6-5.4 11-.9"/><path id="brow" class="st0" d="M353.5 205.4s7.7-2.9 10.8 3"/><ellipse id="eye_II" transform="matrix(.03246 -.9995 .9995 .03246 103.129 551.096)" class="st1" cx="336.2" cy="222.3" rx="4.1" ry="2.7"/><ellipse id="eye" transform="rotate(-4.14 361.595 223.277) scale(1.00001)" class="st1" cx="361.6" cy="223.3" rx="2.7" ry="4.1"/><g id="earrings_front"><path class="st3" d="M384.2 228.9c5.3-.8 9.7 6.2 11 14.6s-1.9 16-7.2 16.8h-.2M301 234.9c5.3-.8 10.6 5.4 11.9 13.8 1.3 8.5-1.9 16-7.2 16.8h-.2"/></g><path id="mouth" class="st0" d="M346.2 249.7s-15.5 9.6-16.3-11.3l16.3 11.3z"/><path id="hair" class="st1" d="m328.8 169.6-.1.1c-11.6 1.7-24.6 7-31.8 14.8-12.8 13.8-6.9 43.3 6.1 45.3 1.1.2 2.2.3 3.2.3-.1-.7-.2-1.5-.3-2.2-.3-2.7-.4-5.4-.4-8.1 17.8-6.6 17.7-33.3 17.7-35.5 3.8 3 8.7 8.1 7.4 13.8l39.3 2.5c4 6.9 6.5 14.5 7.3 22.3v.3c3.7-5.3 3.8-13.4.8-22.1l13.3.8c.1 0 12.3-44.8-62.5-32.3z"/></g><g id="lines"><path class="st0" d="m368.9 371.1-83.6-.2 4.7-36.1M220.3 384.5c-3.7 14.6 8.4 32.2 23.5 32.5l121.3-.1"/><path class="st0" d="M286.1 371s-12.5-5.6-21.6 7.9M285.8 366.7s-11.6-10.5-26.2 1.6"/></g><path id="laptop" class="st2" d="m268.3 403.1 61.3.6 20.2-95c.3-2 2.1-3.5 4.1-3.6l149.4 2.3c2.7 0 4.7 2.9 4.1 5.9l-19 101.3c-1.3 6.3-9.2 11.1-14.9 11-36.7-.6-184.5-2.7-188.9-2.8-19.7-.2-16.3-19.7-16.3-19.7z"/><path id="table" class="st0" d="M186.4 778.2V423.3h339.7v354.9"/></g><g id="thinking_man"><path class="st0" d="M430 780.6h-22.5c-2.2.2-13.8-.3-3.9-6.5 2-.8 18.6-11.5 25.2-12.7s31.9-1.2 32.4-1.2 9.3-25 9.5-26.4l35.8 1.6c-1.9 4.8-13.1 40.1-21.3 43.2s-55.3 1.5-55.3 1.5.8-7 10.1-8 13.2-1 13.2-1" id="hand_II"/><g id="head-2"><path id="neck-2" class="st0" d="m641.4 484.8-5.2 21.6h0c3.3 18-17.5 30.5-31.9 19.1l-25.5-20.2 14.2-28.4"/><path id="face-2" class="st0" d="M648.1 482c-6.4 3.4-13.7 5-21 4.4-12.6-1.4-15.8-3.6-21.7-9.4S583 446.6 583 446.6v-.1s-22.8-35.1 12.4-58.7c3.3-2.2 26-16.8 39.6 1.4 9 12.2 16.2 26.6 20.9 38.1 0 0 5.5 12.9 6.6 25.9"/><path id="nose-2" class="st0" d="m636.4 424.7 11.6 15.7-6.7 4.1"/><ellipse id="eye_II-2" transform="rotate(-29.097 642.97 417.511)" class="st1" cx="642.9" cy="417.5" rx="2.1" ry="3.3"/><ellipse id="eye-2" transform="rotate(-18.323 628.744 430.095)" class="st1" cx="628.7" cy="430" rx="2.1" ry="3.3"/><path id="brow-2" class="st0" d="M611.4 424.9c.7-3.4 3.3-6.2 6.7-7.2"/><path class="st0" d="M633 406.2s5.3-5.9 10-3.2"/><path id="hair-2" class="st1" d="M595 405.9s40.3 47.8 6.3 69.9c0 0-14.9 9-23.1 3.6 0 0 10-8.5 4.1-16.4 0 0-10.5 26-31.6 19.2 0 0 20.6-15.9 12.1-31.6s20.7-55.3 32.2-44.7z"/><path id="cap" class="st2" d="M638.2 387.2s-29.8-39.2-67.5-5.1c-21.8 19.6-19.4 40.8-13.5 55.3l-18 19c-3.7 4.3-3.2 10.8 1.1 14.5 4 3.4 10 3.3 13.8-.3l84.1-83.4z"/><path id="mouth-2" class="st0" d="m637.6 455 8.8-2.4"/></g><g id="hand-4"><path id="hand-5" class="st0" d="M672.3 485c7.2.4 15.2 2.9 19.1.5 5.1 8.1 10.7 15.7 16.9 23"/><path id="hand-6" class="st0" d="M734.9 486.7c-9.5-6.1-17.6-12.1-22.5-17.3-4.3-4.1-7.8-7.3-10.7-9.7-6.9-5.9-16-8.7-25-7.7-6.9.8-14.9 1.9-18.7 3.4-7.3 2.9-31.3 12.1-29.7 15.9 1.1 2.7 14.3.6 21-.8"/><path id="finger_III" class="st0" d="M658.6 462.6s-13.2 8.2-11.8 14.4 6.3 4.3 6.3 4.3"/><path id="finger_II" class="st0" d="M664.9 467.2s-13.3 10.1-11.4 16.2 6.6 3.8 6.6 3.8"/><path id="finger-2" class="st0" d="M669.8 475s-15.8 12.4-6 15.5 12.8.7 12.8.7 3.4-5.4-6.7-6.5"/></g><g id="trousers"><path class="st0" d="M698.3 657.5c35.1-37.2 80.3-85.5 94.9-102 23.9-26.9 66.9-23.8 86.6-3.4M653.7 704.9 829.1 680c7.5-.7 15.1-.6 22.7.1l167.6 20.8-.4 81.4-414.5.3 49.2-77.7z"/></g><path id="laptop-2" class="st2" d="M834.7 541.6c-3.6-.7-7.2 1.6-7.9 5.2l-24 122.9-122.1 16.5.4 2.7c.7 5.2 5.5 8.9 10.7 8.2L808 681.4c5.2-.7 8.9-5.5 8.2-10.7l23.6-121.1c.8-3.6-1.5-7.2-5.1-8z"/><path id="shirt" class="st1" d="M757.9 595.5c15.2-17 27.6-31.2 35.4-39.9 2.2-2.5 4.6-4.7 7.2-6.8-1.6-3.4-3.5-6.6-5.7-9.6-11.4-14.8-58.5-70.9-58.5-70.9l-39.2 33.6 6.8 9.3c-26.6-6.4-53.1-10.1-66.6-9.4l-1.1 4.7c3.3 18-17.5 30.5-31.9 19.1l-25.5-20.2 2.1-4.1c-22.8-1-43 3.5-49.4 20.3-12 22.2-65.7 220.5-65.7 220.5l69.2 1.8 7-27.5c1.8 17.8 3.8 34.1 6.2 46.7 3.2 17.3 38.7 21.3 56.3 21.1l45.6-.6 68-81.4-34.6-113.8c20.8 3.8 51.3 8.4 74.4 7.1z"/><path id="hair_front" class="st1" d="M683 403.3s-22 6.7-29.1-7.5c-3-6-12.4-9.3-22.2-10.1 1.2 1.1 2.3 2.3 3.2 3.5 9 12.2 16.2 26.6 20.9 38.1 0 0 1 2.4 2.2 6 4-2.6 8.5-6.7 8.7-11.6 0 0-11.2 2.9-14-5.5.2.1 24.4 5.9 30.3-12.9z"/></g><g id="standing_woman"><path id="shoe" class="st2" d="M1375.3 736.3s49 24.3 44.6 49.4l-103.4-.4 1.8-48.8 57-.2z"/><g id="ponytail-2"><path class="st1" d="M1342.9 145.7c-4.6-13.5-20.8-20.1-36.3-14.7-7.5 2.5-13.8 7.8-17.7 14.7l11 26.4 19.6 3.6c-1.5 2.1-3.1 4.1-4.8 6 2.9-.2 5.8-.8 8.6-1.8 15.3-5.4 24.1-20.7 19.6-34.2z"/><ellipse transform="rotate(-20.675 1346.02 182.889)" class="st1" cx="1345.8" cy="182.9" rx="23.1" ry="20.1"/><ellipse transform="rotate(-20.675 1372.104 205.569)" class="st1" cx="1371.9" cy="205.6" rx="20.7" ry="18"/><path class="st1" d="M1405.4 228.2c2.7 7.8-2.4 16.6-11.3 19.7s-18.3-.7-20.9-8.4 2-17 10.9-20.1 18.7 1 21.3 8.8z"/><path class="st1" d="M1421.8 249.2c.2 8.4 4.4 11.8 8.4 13.1 1.1.4 1.7 1.6 1.3 2.7-.2.6-.6 1-1.2 1.3-10.6 4.2-29.7 9.3-35.7-5.6-2.8-7 .6-15.4 8.4-19.2s18.6.1 18.8 7.7z"/><path class="st4" d="m1339.3 164.2-15.2 15.6M1367.1 188.4l-13.7 12.4M1383.9 219.9l-4.7 3.2M1401.4 242l-4.5 3.4"/></g><path id="shirt-2" class="st1" d="M1442.7 313.2c-3.2-5.7-9.1-19.7-13.1-26.1-26.3-42.8-67.3-97.9-87.4-104.6-.5-.2-1-.4-1.6-.5l-22.7-4.3c-12.7 16.6-38.4 33.9-60.8 28.8-35.4-8.1-20.8-39.6-19.5-41.8l11.3 2.5-1.3-2.9-8.6-1.6c-8.7-2.1-20-1.5-34.1 3.2-21.4 7.2-59.9 20.3-87 29.6l.6.6c9.6 10.4 30.4 39.1 14.7 51.2-4.3 3.3-8.4 5.5-12.4 6.4l1.6 2.3s11.6-5.9 49-18.1c7.4-2.4 15.6-4.8 23.8-7.2 1.4 16.9 10.2 36.6 31.9 58.6 11 13.7 54.7 19.5 54.7 19.5 12.9 3.7 39.4-16.9 46.4-28.6 2.3-3.8 4.7-8.1 7.1-12.9 12 15.8 27.3 35.3 40 51.3 22-20.2 40.8-22.3 67.4-5.4z"/><path id="trousers-2" class="st0" d="M1150.8 514.4c28.6-78.1 55.8-151.7 60.5-161.8 10.5-22.4 22.3-31.5 37.8-35.8s31.6-15.6 31.6-15.6c45.8 7.5 44.4 27.1 59.9 56.5s56.8 378.8 56.8 378.8l-121.3 1.7-7-254.4-31.4 150.6"/><g id="head-3"><path id="ear-3" class="st0" d="M1291.2 125.7s19.2 10.5 25.5-9.5c4.7-15.2-9.1-19.8-16.4-21.2"/><path id="neck-3" class="st0" d="m1242.1 151.8 6.9 15.3-11.3-2.5c-1.2 2.2-15.8 33.7 19.5 41.8 23.2 5.3 50.1-13.6 62.2-30.7l-19.6-3.6-15.6-37.6"/><path id="face-3" class="st0" d="M1216.5 85.5c-2.7 9.2-10.4 52.7 17.5 63.5s54.1-10.9 64-37.7 3.7-53-13.8-60.2-48.1-32-67.7 34.4z"/><path id="mouth-3" class="st1" d="M1245 120.8c-4.2.8-8.6.2-12.4-1.8-.9-.4-1.9-.1-2.4.8-.1.2-.1.4-.2.6-.6 3.4-.4 9.4 7.1 11.2 7.9 1.9 9.5-5 9.8-8.9.1-1-.6-1.9-1.6-2 0 .1-.2.1-.3.1z"/><path id="nose-3" class="st0" d="m1240.2 108.4-8.7-2.2 14.7-33.5"/><path id="brow-3" class="st0" d="M1265.3 83.2s-4.3-8.2-11-5.2"/><path id="brow-4" class="st0" d="M1242.2 64.2s-5.4-7.5-11.6-3.6"/><ellipse id="eye_II-3" transform="rotate(-78.37 1251.84 97.978)" class="st1" cx="1251.9" cy="98" rx="4.7" ry="3"/><ellipse id="eye-3" transform="rotate(-78.37 1223.338 92.548)" class="st1" cx="1223.4" cy="92.6" rx="4.7" ry="3"/><g id="glasses"><ellipse transform="rotate(-80.369 1261.925 93.41)" class="st5" cx="1261.9" cy="93.4" rx="25.4" ry="18.8"/><ellipse transform="rotate(-80.369 1213.206 84.036)" class="st5" cx="1213.2" cy="84" rx="25.4" ry="18.8"/><path class="st5" d="m1232.9 81 11.5 2.2M1281.3 87.8l26.1 8.9"/></g><path id="hair-3" class="st1" d="M1332.2 80.9c-2.1-13.9-22.7-36.9-41.6-36.7-24.4-24.8-61-49.7-82.2-6-2 4-.3 8.8 3.7 10.8l1.5.6 69.4 18c1.9 10.4 7.3 27.1 21.9 33.8 4.2 1.9 7.1 1.7 8.9 0 3.3 3.3 5.1 8 2.9 14.8-5.8 18.7-23.6 10.5-25.8 9.3-3.6 5.6-4.2 7.4-9.1 11.6 15.1 8.3 27.7 15.4 37.6 2.3 12.9-17.1 15.6-39.1 12.8-58.5z"/></g><g id="hand_II-2"><path id="hand-7" class="st0" d="M1030.8 116.2c-8.1.1-17.6.2-17.6.2s-19.1 3.7-22.1 4.2-17.8 7.9-17.1 9.5c1.5 4.1 13.9 1.5 20.2-1.1s20.5.1 20.5.1 3.9 11.9 1.3 11.9-16.9-1.1-19 3.3-1.2 7.8 4.3 7.1 13.2 3 13.2 3 20-3.4 24.9-5.9 25.3 45.3 44.9 76.6 32.6 34.5 48.8 22c15.7-12.1-5.1-40.8-14.7-51.2-7.6-8.3-50.5-52.8-68.5-71.6-4.9-5.3-11.9-8.2-19.1-8.1z"/></g><path id="forearm" class="st0" d="m1309.3 390 .4.2s99.7-33.1 128.9-60.2c14-13-15.2-52.5-71.7-4.9-5.8 4.9-12 9.5-18.4 13.7"/><path id="laptop-3" class="st2" d="m1386.6 356.5-23.6.6-20.2-95c-.3-2-2.1-3.5-4.1-3.6l-149.4 2.3c-2.7 0-4.7 2.9-4.1 5.8l18.9 101.3c1.3 6.3 9.2 11.1 14.9 11l42.6-.8c-1.9-2.4-3.6-4.9-5-7.6-7.5-14-16.3-32.8-10.4-35.7 2.7-.5 5.6 3.5 8.1 8.4-2.2-6.6-3.7-13.4-.5-14s6.2 3.3 9.3 10.4c-1.5-4.4-2.7-8.4-2.7-9.7.3-7.9 5.7-10 12.2 7.1l-2.2-7.4c-1.4-8 5.9-6.8 9.9.4 2.5 4.6 7.6 15.6 11.8 25.5 2.2-3.8 7-10.9 11.5-7.9s-2.3 16.1-5.7 22c.4 1 .7 1.9 1 2.7l7.3 5c32.8-.6 61.7-1.2 63.9-1.2 19.9-.1 16.5-19.6 16.5-19.6z"/><g id="hand-8"><path class="st0" d="M1319.7 386.6c-33.3 14-53 2.9-63.1-15.9-7.5-14-16.3-32.8-10.4-35.7 6.2-1.3 13.7 22.1 13.7 22.1s-12.5-26.4-6.1-27.8c5-1 9.8 9.7 15.2 26.2 0 0-8.6-22-8.5-25.5.3-10 8.9-10.8 17.4 24.8l-7.4-25c-1.4-8 5.9-6.8 9.9.4 2.5 4.5 7.3 15 11.5 24.8"/><path class="st0" d="M1292.3 356s5.4-12 11.3-8.1-7.5 25-7.5 25"/></g></g><g id="hoodie_man"><g id="body"><path id="hoodie" class="st0" d="M996.8 440.2c-39.3 11.3-48 27.2-43.2 42.8-15.8 9.5-48 32.6-76.9 77.4-40 62 89.1 160 111.8 160s183.2-62.7 183.2-62.7l9.4-28.6c13.6-41.1 1.8-86.3-30.2-115.4l-.7-.7c-17.3-15.5-33.9-34.8-50-42.4-2.2-11.6-8.5-24-25.2-30.9"/><path id="shape_II" class="st1" d="M1096.7 469.2c1.8 9 1.1 17.5.8 22.7-.9 21.7-9.1 33.4-11.5 41.5 15.8-9.4 30.4-31.1 37.6-45.4-4.5-4.3-19-15-26.9-18.8z"/><path id="shape-4" class="st1" d="M1010.2 535c-7.8-3.6-47.6-29.3-54.3-54.3-8 4.3-20.6 11.9-28.4 21.2 9 5.5 59.8 35.7 82.3 34l.9-.1c-.2-.3-.4-.6-.5-.8z"/><path id="shirt-3" class="st2" d="M1071.4 535.2c8.6-24.9 2.1-52.7-3.9-60.8-3.8 14.9-10.9 28.7-20.9 40.3a250.71 250.71 0 0 0-49.7-43.4l.7-.8-1.7.1-9.1 9.4s43.3 32.9 57.4 112.3c9.2 51.5 13.8 100 13.8 100l26.8-1.4c0-.1-22.8-128.5-13.4-155.7z"/><g id="head-4"><path id="ear-4" class="st0" d="M985 415.5c-4.1 1.8-11.8 6.6-7 16.7 4.2 9 12.6 6.3 17.6 3.6"/><path id="face-4" class="st0" d="M1062.1 372c9 22.9 12.1 49.9 12.4 62.5"/><path id="neck-4" class="st0" d="m1005.8 455.1-.4 6.3-8.6 9.9h0c18.4 12.2 35.2 26.8 49.7 43.4 0 0 19-20 23.1-51.6"/><path id="beard" class="st0" d="M996.3 415.6c3.2 2 13.9 15.3 17.3 21.9 0 0 15.7-10.1 40.2-16.5 0 0 13.4-3 19.2-2.7 0 0 5 25.1-2.7 40.7s-31.5 17.6-44.2 12.5-15.4-8.3-19.9-16-18.7-36.9-18.7-36.9l8.8-3z"/><path id="hair-4" class="st1" d="M990.7 422.6s-10.2-9.6-16-20.8c-5.5-10.5-3-23.4 6-31.1 7.6-6.3 14.8-4.6 14.8-4.6s-13-13.4-2.7-30.6c3.7-6.1 9.7-10.4 16.6-11.9 9.6-2.3 19.7 1.4 25.7 9.3 0 0 9.8-37.5 51.6-27.1 4.2 1.1 9.8 5.5 12.7 8.7 17.8 19.5-15.9 56-36.3 63.3-22.4 8-36.8 7.5-45.6 3.7 6.4 2.1 8.7 38-26.8 41.1z"/><path id="nose-4" class="st0" d="m1053.2 411 7.8 21-8.1-.1"/><ellipse id="eye_II-4" transform="rotate(-13.88 1062.878 408.632)" class="st1" cx="1062.9" cy="408.7" rx="2.3" ry="3.5"/><ellipse id="eye-4" transform="rotate(-2.865 1043.43 413.35) scale(1.00005)" class="st1" cx="1043.4" cy="413.3" rx="2.3" ry="3.5"/><path id="brow_II-2" class="st0" d="M1028.3 405.1c1.7-3.4 5.2-5.6 9-5.7"/><path id="brow-5" class="st0" d="M1055.2 389.2s7.2-4.7 11.4-.6"/><path id="mouth-4" d="M1052.8 446.8c-7.1-.7-9.6-4.2-9.6-4.2l12.3-.8c.1-.1 2.1 4.8-2.7 5z" style="fill:#2e186a;stroke:#2e186a;stroke-width:6;stroke-linecap:round;stroke-linejoin:round"/></g><g id="lines-2"><path class="st0" d="M1015.1 529.1s12.1 28 14 47.7M1079.9 530.4s2.1 24.4 4.2 44.1M932.2 588.7s12.8-14.2 33.8-1.1l18.7-16.6"/><path class="st0" d="M1013.1 614.4c-2.3-1.1-48.9-27.7-48.9-27.7M1128.7 586.1l-9.3-21.1"/></g><path id="trousers-3" class="st1" d="M1010.8 696.6s-46.4-19.3-103.8-59.1-94 21.8-78.5 47c13.6 22.2 90 98.6 90 98.6l260.2-2.1s61.2-76.9 70.8-89c32.4-40.8 5.6-62.3-30-65.4-33.6-2.9-124.2 63.1-135.3 71.6l-73.4-1.6z"/></g><path id="laptop-4" class="st2" d="M1170 583.9h-167.3c-2.2 0-4.1 1.5-4.6 3.6l-22.7 95.9h-42s-3.8 19.7 18.4 19.7h23.6c.4.1.9.2 1.3.2H1144c2.2 0 4.1-1.5 4.6-3.6l26-109.9c.6-2.5-1-5.1-3.5-5.7-.4-.1-.7-.2-1.1-.2z"/></g><path id="line-4" class="st0" d="M3 782.7h1570.4"/></g></g></svg>