<svg xmlns="http://www.w3.org/2000/svg" viewBox="0 0 1598.1 758.01"><defs><style>.cls-1,.cls-4,.cls-5,.cls-6{fill:none}.cls-1,.cls-7{stroke:#2e186a}.cls-1,.cls-4,.cls-5,.cls-6,.cls-7{stroke-linecap:round;stroke-linejoin:round}.cls-1,.cls-6,.cls-7{stroke-width:6px}.cls-2{fill:oklch(68.5% 0.169 237.323)}.cls-3{fill:#2e186a}.cls-4,.cls-5,.cls-6{stroke:oklch(68.5% 0.169 237.323)}.cls-4{stroke-width:4.5px}.cls-5{stroke-width:8px}.cls-7{fill:#fff}</style></defs><g id="Layer_2" data-name="Layer 2"><g id="outline_III" data-name="outline III"><path id="shape" class="cls-1" d="M73.32 754.69V497.44h110.49"/><path id="shape-2" data-name="shape" class="cls-1" d="M1143.52 497.44h384.87v257.25"/><path id="shape-3" data-name="shape" class="cls-1" d="M454.75 497.44h388.63"/><g id="screen"><path class="cls-2" d="M943.73 88.21H619.5a9.86 9.86 0 0 0-9.84 9.79v199.55a9.86 9.86 0 0 0 9.84 9.83h13.92l.64-.45c6.52-5.58 13.7-12.15 20.64-18.71h-17.58a11 11 0 0 1-11-11V112.38a11 11 0 0 1 11-11h276a11 11 0 0 1 11 11v164.84a11 11 0 0 1-11 11H694.41l-13.75 19.16h65.51l-19.12 73.27h119.38L828 307.38h115.73a9.86 9.86 0 0 0 9.84-9.83V98a9.86 9.86 0 0 0-9.84-9.79Z"/><g id="lines"><ellipse class="cls-1" cx="785.11" cy="340.91" rx="14.43" ry="15.06"/><path class="cls-1" d="m817 307.64 15.96 70.94M746.48 307.21h80.79"/><path id="line" class="cls-1" d="M926.72 91.27a10.37 10.37 0 0 1 10.19 10.48V296.8"/></g><g id="code_lines" data-name="code lines"><rect class="cls-2" x="738" y="142.18" width="9.71" height="13.88" rx="3.31"/><rect class="cls-3" x="667.53" y="142.18" width="66.74" height="13.88" rx="4.54"/><rect class="cls-3" x="667.53" y="206.64" width="72.78" height="13.88" rx="4.54"/><rect class="cls-2" x="685.93" y="185.18" width="112.88" height="13.88" rx="4.54"/><rect class="cls-2" x="805.12" y="185.18" width="60.97" height="13.88" rx="4.54"/><rect class="cls-3" x="877.02" y="163.72" width="9.71" height="13.88" rx="3.31"/><rect class="cls-3" x="667.53" y="163.68" width="116.72" height="13.88" rx="4.54"/><rect class="cls-3" x="751.98" y="142.18" width="66.74" height="13.88" rx="4.54"/><rect class="cls-2" x="789.47" y="163.64" width="82.33" height="13.96" rx="4.57"/></g></g><g id="woman_with_glasses" data-name="woman with glasses"><path id="shirt" class="cls-3" d="m621 379.78-1-4.78h-.12c-26.82-.21-8.34-40.7 6-59.54-4.83-20.39-10.86-45-15.5-61.33-8.22-28.89-27.4-36-41.73-31.89l-20.37 3.45-1.46 3.24 10.13-2.22c1.1 2 14.23 30.31-17.57 37.58-20.87 4.76-45-12.18-55.93-27.61l1.31-.24-18.13 3.07c-.75-.08-1.5-.14-2.23-.16-17.86-.4-47.44 64.28-54.35 101.95 9.29-3 30.19-6.14 56.76-2.55.78-1.56 3.63-6.31 7.38-13 .44.76.87 1.5 1.3 2.22 2.19 3.65 9.57 15.9 9.57 15.9l110 11.93L590 365l-15.18 14Z"/><g id="head"><path class="cls-1" d="M508.24 192c-3.89 1.74-17.55 6.54-22.32-8.79-2.38-7.67.71-12.38 5-15.26M552.68 215.9l-5.88 13 10.13-2.22c1.1 2 14.23 30.31-17.57 37.58-20.87 4.76-45-12.18-55.93-27.61l17.64-3.2 13.29-32"/><path class="cls-1" d="M576 155.62c2.42 8.24 9.35 47.35-15.73 57s-48.61-9.77-57.53-33.85-3.33-47.63 12.41-54.14S558.38 96 576 155.62Z"/><path class="cls-3" d="M550.33 187.37a17.76 17.76 0 0 0 11.13-1.58 1.59 1.59 0 0 1 2.28 1.2c.53 3.09.38 8.47-6.38 10.1-7.06 1.7-8.56-4.5-8.86-8a1.61 1.61 0 0 1 1.83-1.72Z"/><path class="cls-1" d="m554.68 176.24 7.77-2.03-10.75-29.79M528.81 154s3.89-7.4 9.9-4.67M552.83 136.48s4.85-6.78 10.43-3.22"/><ellipse class="cls-3" cx="544.84" cy="163.36" rx="2.66" ry="4.22" transform="rotate(-11.63 544.752 163.32)"/><ellipse class="cls-3" cx="570.41" cy="158.26" rx="2.66" ry="4.22" transform="rotate(-11.63 570.32 158.235)"/><ellipse class="cls-4" cx="535.05" cy="162.77" rx="16.89" ry="22.84" transform="rotate(-9.63 535.344 162.858)"/><ellipse class="cls-4" cx="578.84" cy="154.35" rx="16.89" ry="22.84" transform="rotate(-9.63 579.156 154.414)"/><path class="cls-4" d="m561.25 151.61-10.37 1.97M517.72 157.75l-23.47 7.91"/><path id="hair" class="cls-3" d="m490.09 168.54.17-.13c1.56.48 3.62.24 6.3-1 13.14-6 17.93-20.93 19.67-30.33l62.4-16.2a7.25 7.25 0 0 0 4.68-10.2c-19.14-39.21-51.95-16.9-73.92 5.42-17.09-.29-38.8 17-43.43 30.91-5.57 16.71-3.63 40.73 8 56.12 12.35 13.58 23.71 18.06 33.72 17.35-.32-.26 6.62-17.61 8.1-20.28a62.61 62.61 0 0 1-6.71-8.65c-2 1-17.93 8.46-23.17-8.39-2.22-7.14.31-11.72 4.17-14.64"/></g><g id="hand_II" data-name="hand II"><path class="cls-1" d="M550.64 351c-26.65-1.31-87.95-9.84-87.95-9.84l1-2.74c-22.24-2.61-40.19-.56-50.19 2-3.09 8.76-4.32 16.28-2.62 21.28 2.23 6.61 9.8 12.19 16.7 13.19 57.41 8.33 125.72 2.09 125.72 2.09"/><path class="cls-1" d="M544.82 351a150.29 150.29 0 0 1 26.9 1.51c8.26 1.27 22.31 3.4 23.72 5.29 3.32 4.45-9.33 6.68-15.31 3"/><path class="cls-1" d="M580.19 367.46c8.24 1.84 12.2 1.53 10.1-2.27-1.45-2.6-21-11.55-24.82-12.55s-24.72-2.35-24.72-2.35"/><path class="cls-1" d="M560.4 359.14a136.68 136.68 0 0 1 14.08 5.17c6.13 2.76 9.81 5.82 9.38 7s-5 3.59-9 2.17c-5.62-3.1-18.24-6.28-18.24-6.28 1.32-.3 10.11 3.33 14.93 4.87s8.69 6.15-3 5.49l-17.64-.56"/></g><g id="hand"><path class="cls-1" d="M708.66 274.2s18.68-.55 30.91-7.7c7.29-4.26 16.74-10.11 17.2-12.63.86-4.74-10.67.1-12.5.72"/><path class="cls-1" d="M721.89 261s10-5.22 14.42-10.49 7.43-9.4 6.61-10.45-6.51-.89-9.53 2.13c-3.81 5.44-15.49 11.24-15.49 11.24 1.29-.19 8.86-5.39 12.57-8.85s5.37-9.85-4.81-4.7c0 0-10.84 5.83-14.86 7.39 0 0-17 2.14-22.52 7.86h0c-3.7 3.86-32.57 33.29-54.22 51.83-12.52 8.1-46.8 67.82-14.22 68.08 6.74.25 15.42-4.18 18.87-9.11l64.93-90.57c10.39-1.67 17.8-4.33 22.78-7 6.45-3.51 26.1-19.79 26.47-21.93 1-5.71-8.73-5.54-15.91 3.57"/></g><g id="ponytail"><ellipse class="cls-3" cx="480.55" cy="217.44" rx="28.77" ry="25.04" transform="rotate(-60.71 480.505 217.447)"/><ellipse class="cls-3" cx="510.66" cy="243.42" rx="20.8" ry="18.1" transform="rotate(-80.17 510.64 243.425)"/><ellipse class="cls-3" cx="528.91" cy="271.3" rx="18.57" ry="16.16" transform="rotate(-55.34 528.895 271.305)"/><ellipse class="cls-3" cx="544.62" cy="295.77" rx="15.35" ry="13.36" transform="rotate(-39.99 544.654 295.78)"/><path class="cls-3" d="M547.57 329.52c6.66 3.52 7.74 8.25 7.22 12a1.93 1.93 0 0 0 3.17 1.73c7.62-6.87 19.29-20.22 9.69-30.94-4.53-5.06-12.69-5.67-18.84-.85s-7.24 14.88-1.24 18.06Z"/><path class="cls-5" d="m493.48 241.1 10.83-16.34M515.29 263.83l13.51-9.66M536.04 285.4l4.62-2.3M549.86 310.2l4.62-2.3"/></g><g id="legs"><path class="cls-1" d="m527.16 644.3-20.8 67.61s36.59 9 32.75 40.07l-90.11-.46 25.78-115.41ZM652.15 641.75l-21.5 69.82s37.87 9.52 33.88 41.76l-93.43-.48 26.71-119.59Z"/><path class="cls-2" d="M621 383.5 397.43 420c-.39 1.37 19.73 13 38.81 40.77s12.37 35.57 10.67 38.52c14.57 1.94 32 2.48 50.09 2.17L459.63 689h95.74l26.69-115.87-15.92 116.55h95.74L670 422.29s0-42.29-49-38.79Z"/></g></g><g id="ponytail_woman" data-name="ponytail woman"><g id="shoes"><path id="boot" class="cls-3" d="m232.85 675.94-5.53 30.66.44 48.47h22.92l1.32-47.92s9.29 46.87 41.31 49 59.69-6.67 59.47-7.92c-.1-.63 1-10.06 2-19.2.94-8-6.68-15.76-14.88-15.29-12.31.72-28.46-.26-38.26-8.42-4.88-4.07-6.44-14.52-6.16-27.46"/><path id="boot-2" data-name="boot" class="cls-3" d="m365.36 680.65.67 74.42h22.91l1.36-47.92s9.3 46.87 41.32 49 59.68-6.67 59.47-7.92c-.11-.63 1-10.06 2-19.2.94-8-6.69-15.76-14.89-15.29-12.31.72-28.45-.26-38.25-8.42-4.74-3.95-8-14.59-10.31-28"/></g><path id="shape-4" data-name="shape" class="cls-1" d="M377.06 285.5c-2.05-3.58-4.14-7.29-6.18-11-1.24-15.1-4.33-28.44-10.39-37.2-6.09-7.3-13.49-10.2-22.27-13.09"/><path id="shape-5" data-name="shape" class="cls-1" d="m260.09 217.66-30.16-2.27-.44-.24c-12.87 0-29.72 11-31.64 25.82-3.58 27.65 5.13 64.44 8.84 96.33-.65 3.28-1.17 5.88-1.54 7.6 0 0-72.9 101.39-21.9 152.43.27.4 80.12-.53 80.12-.53l-32 179.54L429.72 680s21.63-179.29 17.14-199.17c-9.1-40.34-104.94-97.13-104.94-97.13l7.23-.74c21 8.52 45 2.74 66.6-10.31-2.73-2.27-7.66-8.22-7.66-11.45a101.7 101.7 0 0 1 6.31-36.87"/><g id="head-2" data-name="head"><g id="earrings_back" data-name="earrings back"><path class="cls-6" d="M277.85 211.78c-6.39.79-12.79-6.75-14.37-17a25.14 25.14 0 0 1 1.73-14.58M366.16 208.67c-6.28.77-12.58-6.51-14.29-16.5"/></g><g id="ponytail-2" data-name="ponytail"><path class="cls-3" d="M271 107c12.28-11.61 14.85-64.94-26.05-95.5-41.4-30.91-67.83 9.09-73.52 19.5s-7.65 37.26 27.43 58.15S257 120.29 271 107Z"/><path class="cls-2" d="m276.8 127.2-11.55-12.59a10.37 10.37 0 0 1 .87-15.13l.77-.65a11.62 11.62 0 0 1 15.84 1.2l11.54 12.59Z"/></g><path id="ear" class="cls-1" d="M278.73 178.75a12.77 12.77 0 0 1-11.47.16c-6.26-3-9-10.24-6.2-16.21a12.16 12.16 0 0 1 14.53-6.13"/><path id="ear-2" data-name="ear" class="cls-1" d="M355.26 152.35a13 13 0 0 1 8.62.93c6.26 3 9 10.24 6.2 16.2a12.08 12.08 0 0 1-13.29 6.44"/><path id="neck" class="cls-1" d="m323.9 215.11.25 6.39 15 3.29c.84 2.43 1.76 44.55-36.73 39.31-25.25-3.44-37.06-26-43.82-46.71l21.42 1.5.08-39.64"/><ellipse id="face" class="cls-1" cx="316.08" cy="163.52" rx="39.71" ry="51.04" transform="rotate(-10.41 316.058 163.497)"/><path id="nose" class="cls-1" d="m319.68 175.64 7.56-.25a1.22 1.22 0 0 0 1.14-1.53l-5.45-20.62"/><path id="brow_II" data-name="brow II" class="cls-1" d="M298.68 143.2s6.7-6 12.29-1"/><path id="brow" class="cls-1" d="M329.25 141.3s8.56-3.21 12 3.34"/><ellipse id="eye_II" data-name="eye II" class="cls-3" cx="310.02" cy="160.06" rx="4.52" ry="3.03" transform="rotate(-88.14 310.008 160.07)"/><ellipse id="eye" class="cls-3" cx="338.25" cy="161.13" rx="3.02" ry="4.54" transform="rotate(-4.14 338.522 161.279)"/><path id="hair-2" data-name="hair" class="cls-3" d="m301.74 101.47-.09.12c-12.92 1.88-27.35 7.81-35.38 16.44-14.23 15.3-7.69 48.17 6.81 50.4a32.87 32.87 0 0 0 3.62.36c-.13-.83-.24-1.66-.34-2.5a65.27 65.27 0 0 1-.39-9c19.76-7.38 19.72-37 19.69-39.47 4.19 3.34 9.68 9.06 8.26 15.32l43.71 2.76a63.69 63.69 0 0 1 8.16 24.85v.35c4.09-5.85 4.29-15 .86-24.63l14.75.93s13.6-49.91-69.66-35.93Z"/><g id="earring_front" data-name="earring front"><path class="cls-6" d="M361.72 170.11c6.45-1 11.86 7.59 13.46 17.95s-2.34 19.58-8.8 20.58h-.22M272.27 174.21c6.46-1 13 6.59 14.6 17s-2.34 19.58-8.8 20.57h-.22"/></g><path id="mouth" class="cls-1" d="M321.14 190.56S303.88 201.27 303 178Z"/></g><g id="arm"><path class="cls-1" d="M269.73 322.6s-13.58-6.21-20.56 6.59M268.56 317.17s-11.83-13.58-26.18 4.27"/><g id="hand-2" data-name="hand"><path class="cls-1" d="m352.65 301 15.71-6s12.3-13.57 17.73-17.64 16.11-3.57 8.92 2.72-8.22 10.08-8.22 10.08 18.92-5.51 29.32-12c10.63-6.63 8.32 4.75 8.32 4.75s8 1.1 4.93 5.22c0 0 6.15 3.52 0 7.05 0 0 8.72.92 3.73 6.13-3.63 7.42-28.81 21.48-44.26 20.34l-8.64 3.8-10.89 5.37"/><path class="cls-7" d="M398.81 294s19.19-4.72 25.62-11M401.32 300.6c2.08-.92 17.4-3.74 27.11-13.11M403.79 307.43c4.35-1.85 13.9-1.31 25.64-11.69"/></g><path id="lines-2" data-name="lines" class="cls-1" d="M261.5 265c7.21 28.06 8.81 58.38 8.81 58.38l81.54-22.23L369 330.79s-19.69 9.5-60.8 30.34c-36.4 18.45-82.34 33.86-99.55-14.28"/></g></g><g id="thinking_man" data-name="thinking man"><g id="legs-2" data-name="legs"><g id="boots"><path id="boot-3" data-name="boot" class="cls-3" d="M1016.64 688.74v64.4H894.26s-.38-34.72 56-41.12v-24.14Z"/><path id="boot-4" data-name="boot" class="cls-3" d="M915.49 688.89v64.25H793.12s-.39-34.72 56-41.12v-24.43Z"/></g><g id="trousers"><path class="cls-1" d="m952.26 413.26-93.32 61.11a72 72 0 0 0-18 45.59l-6.05 168.79h77l106 .28s6.8-125.14 9.3-169.72a19.92 19.92 0 0 1 18.93-18.78c18.16-.89 45.22-2.16 57.1-2.53 93.23-3.25 68.3-41.72 57.28-69.1-4.26-10.57-8.38-20.64-11.63-28.26"/><path class="cls-1" d="M1047.86 406.38 940.79 450.7c-13.41 8.17-13.55 32.42-14.17 49.58l-6 188.47"/></g></g><path id="shape-6" data-name="shape" class="cls-3" d="M1170.75 350.45c-8.48-10.84-22.64-28.95-32.81-42a3.07 3.07 0 0 1-1.17-.27c-.54-.25-12.83-5.52-30.28 5.62a3 3 0 0 1-1.52 1.57c-28 12.81-69.18 31.63-77.75 35.66 8.52 8.06 19.11 19.23 21.25 26.75-26.64 1.71-32.23.94-33.35.63l-16 1.81c-12 1.66-8.38-3.43-3.57-5.41 2.26-.92 5.37-2.39 8.19-3.68h-.06a70 70 0 0 0-11.42 5.46c-4 1.8-8.88-.36-9.42-1.49-.33-.7.89-2.29 3.29-4.19-8.22 2.53-12.27 2.52-10.43-1.54a11.33 11.33 0 0 1 3.21-2.9c-5.62.7-11.24-.93-9.14-4.28 1.29-2.07 15.6-5.44 24-7.45a154.82 154.82 0 0 1 21.8-3.42l5.88-1.12a3 3 0 0 1 1.34-3.65c2-1.12 60.36-27.77 76.37-35.08-5-9-21.45-40.13-19.29-58.52a3 3 0 0 1 6 .7c-1.9 16.2 13.39 45.48 18.38 54.53 11.77-7.22 21.66-7.9 27.91-7.18-2.85-3.68-4.94-6.41-5.85-7.63-5.34-7.19 1.86-11.34-1.47-17.19s-3.64-8.62-3.64-8.62l.37-.14c-6.37-2.85-19.26-15.84-20.8-19.35a19.59 19.59 0 0 1 3.56-22c-18.29-10.15-17.51-17.21-11.58-15.7s28.71 16 29.47 16.53c8.54 5.7 14.77 9.69 19.08 17.19 0-.15.07-.23.07-.23s2.06.88 8.12 4a6 6 0 0 0 3.66.6c-25.77-67.08-56.23-53.34-73.8-52.74l-5.64.22 3 7.56-54.73 49.42 1.27-48-3.63-16.76c-1.47.41-2.86.77-4 1.07v.07c2.63 1.22 4.67 2.76 5.1 4.67 1.38 6.21-3.86 6.56-3.86 6.56l-3.35-3.15-.12.48c2.1 1.35 3.68 2.94 4 4.78.92 6.3-4.34 6.26-4.34 6.26l-2.05-2.4-.15.59c2 1.74 2.75 3.88.11 6.31-7.49 6.92-11.27 6.15-11.27 6.15s-4.83-3.08 2.12-7.94c-.34.14-.66.29-.95.44-6.3 3.44-12.52 9.13-17.06 8.63 0 0-.21 2.08-.79 5.77a3.14 3.14 0 0 1 1.56.23l9.46 4.2a3 3 0 0 1 1.61 3.74L965 321.7a3 3 0 0 1-2.83 2 2.92 2.92 0 0 1-1-.17 3 3 0 0 1-1.83-3.82L989 235.24l-6.93-3.08a3 3 0 0 1-1.69-3.46l-23.74-10c.09-.2.16-.4.24-.6L946 213.23s-31.65 72.37-39 91.2a68.85 68.85 0 0 0-2.06 7.16c-15.52 46.41 17.16 70.49 17.16 70.49l159.32 1.62-18.48 15.7c-2.71 3.1 86.89-3.88 90-3.49 1.59.19-6.47-12.09-14.71-24.14 13.06-5.38 25.95-12.51 32.52-21.32Z"/><g id="head-3" data-name="head"><path id="neck-2" data-name="neck" class="cls-1" d="m1022.05 199.64 1.13 5.23-1.27 47.97 54.73-49.42-10.62-27.12"/><path id="hair_back" data-name="hair back" class="cls-3" d="M997.42 151.89c-.32-12.63.42-28.91 3.83-43.87a26.3 26.3 0 0 1 .73-2.59c-8.89-3.76-14.25 10.38-10.83 33.81 1.66 11.39-4.84 20.85-4.84 20.85 5 1.28 8.76.42 11.52-1.44-.38-4.05-.41-6.73-.41-6.76Z"/><path id="face-2" data-name="face" class="cls-1" d="M1022.21 198.67c9.1 2 19.31 0 26-3.84 11.07-6.44 13.11-9.81 16.25-17.51s8.31-37.34 8.31-37.34v-.09s6.84-41.81-35.46-49.33c-3.94-.7-31-5-36.06 17.46-3.41 15-4.15 31.24-3.83 43.87 0 .06.14 14.15 4.44 26.7"/><path id="nose-2" data-name="nose" class="cls-1" d="m1014.89 142.74-4.32 20.51 7.48-1.18"/><ellipse id="eye_II-2" data-name="eye II" class="cls-3" cx="1005.35" cy="141.1" rx="3.3" ry="2.13" transform="rotate(-84.66 1005.404 141.068)"/><ellipse id="eye-2" data-name="eye" class="cls-3" cx="1025.61" cy="143.39" rx="2.13" ry="3.3" transform="rotate(-5.44 1025.433 143.334)"/><path id="brow_II-2" data-name="brow II" class="cls-1" d="M1037.69 128.67a9.78 9.78 0 0 0-9.11-4"/><path id="brow-2" data-name="brow" class="cls-1" d="M1010 123s-7.31-3.36-10.57 1"/><path id="hair_front" data-name="hair front" class="cls-3" d="M1039.78 108.45s-16.41 56 20.86 62c0 0 21.71 4 26.72-3.65 0 0-15.68-8.47-13.63-17.44 0 0 17.56 19.53 33.07 5.71 0 0-25.69-4.47-23.24-27.6 1.76-16.57-37.95-32.47-43.78-19.02Z"/><path id="cap" class="cls-2" d="m1107.91 116.84-22.69-3.6c-2.24-15.32-11-37.29-42.33-41.16-49-6-50.78 41.64-50.78 41.64l113.48 17.75a7.41 7.41 0 0 0 2.32-14.63Z"/><path id="mouth-2" data-name="mouth" class="cls-1" d="M1033.07 167.1s-3.15 7.23-13.37 5.55"/></g><g id="hand_II-2" data-name="hand II"><path class="cls-1" d="M1000.83 212.05c-6.3 3.44-12.52 9.13-17.06 8.63 0 0-.32 3.25-1.3 8.88M956.67 218.74c.52-1.27 1-2.49 1.37-3.65 2.11-5.51 3.93-9.89 5.5-13.37a32.76 32.76 0 0 1 19.3-17.6c6.59-2.26 14.33-4.63 18.36-4.88 7.86-.48 33.46-2.44 33.68 1.64.14 2.74-11.22 6.19-18.14 8"/><path class="cls-1" d="M1000.65 185.36s18.54 2.35 19.93 8.56-3.86 6.56-3.86 6.56"/><path class="cls-1" d="M1000 192.8s16.33 3.49 17.25 9.79-4.34 6.26-4.34 6.26"/><path class="cls-1" d="M998.86 202s19.57 4.52 12.07 11.43-11.27 6.15-11.27 6.15-5.36-3.41 3.29-8.71"/></g><g id="hand-3" data-name="hand"><path class="cls-1" d="M1014.83 378.27s1.55 1.54 33.64-.52c-2.29-8-14.24-20.26-23-28.38l-10.09 1.92"/><path class="cls-1" d="M1021.4 350.87a155.69 155.69 0 0 0-27.62 3.8c-8.42 2-22.73 5.38-24 7.45-1.89 3 2.47 4.64 7.45 4.42"/><path class="cls-1" d="M984.36 371.37c-7 2-10.38 1.69-8.67-2.07 1.27-2.81 20.68-13.67 24.55-15s25.29-4.49 25.29-4.49"/><path class="cls-1" d="M1006 360.56a143 143 0 0 0-14.08 6.5c-6.09 3.36-9.63 6.83-9.09 8s5.42 3.29 9.42 1.49c5.54-3.67 18.28-8 18.28-8-1.38-.19-10.14 4.29-15 6.27s-8.45 7.07 3.57 5.41l18.18-2.06"/></g></g><g id="hoodie_man" data-name="hoodie man"><g id="legs-3" data-name="legs"><path id="shoe_II" data-name="shoe II" class="cls-1" d="m1229.8 621.89 1.34 81.61s-47 11-59.41 50.11l104-.08 16.56-151.45Z"/><path id="shoe" class="cls-1" d="m1119.49 626-11.91 79.58s-44.18 10.64-55.88 47.35l97.71-.07 30.95-136.25Z"/><path id="trousers-2" data-name="trousers" class="cls-3" d="M1454.87 447.73c-16.26 3.69-46.19-23-46.19-23l-152.37-33.1-3.69 21.78-29.93-.8c-75.81-3.44-87.92 53.74-87.92 53.74l-62.25 243.38 92.65.45 47.15-171.86-21.44 170.25 94.23 1.4 18.42-175.11c22.21-5.06 94.34-22 112.8-31.93 18.67-6.93 39.41-30.69 38.54-55.2Z"/></g><path id="hoodie" class="cls-1" d="M1277.06 188.66c-16.93 7.2-19.59 18.18-19.66 27.64-26.24 20.87-42.23 43.15-51.71 64.22-11.42-10.55-32.53-29.88-37.92-33.47-7.5-5-12.26 3.81-18.31.73s-8.12-4-8.12-4-5.26 18.61-20.17 23.67c0 0 .3 2.78 3.64 8.62s-3.87 10 1.47 17.19 51.72 66.46 51.72 66.46c4 4 11.94 15.27 21.34 19"/><path id="hoodie-2" data-name="hoodie" class="cls-1" d="M1408.21 424.28c27.38 16.83 32.71 31.66 53.55 18.17l-3.76-76.76c12.09-14.44 17-40.12-5.89-75.63a222.19 222.19 0 0 0-67.27-66.59c11.69-19.07 9.62-38.45-39.55-42.35"/><g id="shirt-2" data-name="shirt"><path id="shirt-3" data-name="shirt" class="cls-2" d="m1308.2 363.3-.73 17.05-21.98 3.1 1.16-28.39"/><path id="shirt-4" data-name="shirt" class="cls-2" d="M1354.45 202.49h-2.29l2.15 2.47a229.62 229.62 0 0 0-46 40.17 92 92 0 0 1-19.37-37.33c-5.56 7.55-11.59 33.25-3.65 56.35 3.26 9.51 4.25 34.75 4.21 62.45l23.33-1.74c.25-3.53.53-7 .82-10.51 6.18-74.39 53.52-103.3 53.52-103.3Z"/></g><g id="hand_II-3" data-name="hand II"><path class="cls-1" d="M1122.19 226.86c-.76-.51-23.55-15-29.47-16.53s-6.71 5.55 11.58 15.7a19.59 19.59 0 0 0-3.56 22c1.7 3.87 17.21 19.27 22.54 19.89s25.25-4.6 21.06-17-11.34-16.83-22.15-24.06Z"/><path class="cls-1" d="M1133.5 235.18s-19.69-7.78-21.69-6.65c-2.78 1.59.3 9.61 9 13.49 0 0-6.06 7.87-2.72 14"/><path id="welt" class="cls-3" d="M1123.22 276c-3.94-5.91-4.54-8.59-4.54-8.59 14.27-3.21 21.38-24.34 21.38-24.34s2.79.69 9.14 4.27c2.56 1.44 4.9.29 6.73 0 2.55 19.76-22.84 35.25-31.56 39.51-1.06-4.07 1.85-6.36-1.15-10.85Z"/></g><g id="hand-4" data-name="hand"><path class="cls-1" d="M1291.11 327.75a156 156 0 0 0-27.72-2.95c-8.66-.08-23.36-.25-25.11 1.44-2.54 2.45 1.21 5.05 6 6.06"/><path class="cls-1" d="M1250.72 338.72c-7.66.3-11-.76-8.41-4.08 1.91-2.42 23.36-8.29 27.44-8.68s34.51 3 34.51 3"/><path class="cls-1" d="M1273.83 333.45a144.52 144.52 0 0 0-15.23 2.92c-6.72 1.8-11 4.32-10.74 5.55s4.47 4.49 8.79 3.71c6.26-2.23 19.67-3.37 19.67-3.37-1.3-.52-10.88 1.72-16.06 2.48s-9.9 4.83 2.16 6.11l44 7.75"/><path id="welt-2" data-name="welt" class="cls-3" d="M1308.15 363.7c-5.93-2.24-7.83-4-7.83-4 7.69-12 0-31.9 0-31.9s2-.53 8.24-1.79a7.12 7.12 0 0 0 4.73-3.26c12.76 14.46 5.1 39.87 1.7 49.08-2.99-2.66-2.34-6.44-6.84-8.13Z"/></g><g id="hoodie_lines" data-name="hoodie lines"><path class="cls-1" d="M1391.2 306.3s-12.68 1.24-15.9 17.89M1337.39 258.41s-13 26.94-14.73 45.25M1277.37 259.59s6 25.78 4 44.07"/><path class="cls-1" d="M1394.42 379s-67.52-4.59-75.09-6.53-4.77-7.48-10.25-9.59-7.24-3.8-7.24-3.8c7.11-11.34 0-30.13 0-30.13s1.87-.51 7.62-1.69 3.89-7.11 11.68-7.79 74.63 6.94 74.63 6.94M1206.85 281.18s15.55 11.48 25.44 26"/></g><path id="shape_II" data-name="shape II" class="cls-3" d="M1383.09 220.56c-11.49 19.2-35.19 40.57-41.22 43.35a.59.59 0 0 0 0 .08c17.21.84 57.4-21.37 64.19-25.27-8.34-6.24-17.3-14.41-22.97-18.16Z"/><path id="shape-7" data-name="shape" class="cls-3" d="M1260.67 225.22c-.12-2.82-.42-6.07-.36-9.51-4.92 3.88-12.45 7.82-16.8 11.79 5.2 10.08 15.74 25.36 27.24 32.46-3.49-7.18-9.3-16.73-10.08-34.74Z"/><g id="head-4" data-name="head"><path id="ear-3" data-name="ear" class="cls-1" d="M1351 149.33s15 .29 12.32 13.72c-1.9 9.47-10.71 8.39-15.73 6.93"/><path id="face-3" data-name="face" class="cls-1" d="M1274.26 127.58c-2 15.65-1.15 32.43.43 45.05"/><path id="neck-3" data-name="neck" class="cls-1" d="m1345.84 180.27.52 15.52 8 9.14h0a229.62 229.62 0 0 0-46 40.17 91.24 91.24 0 0 1-18.41-33.86"/><path id="beard" class="cls-1" d="M1343.12 152.17c-2.47 2.49-9.09 16.84-10.71 23.53 0 0-16.4-5.62-39.89-6 0 0-12.81.26-17.92 1.8 0 0 1.11 23.7 11.49 36s32.35 8.84 42.65 1.46 12-10.9 14.38-18.79 8.68-37.32 8.68-37.32Z"/><path id="hair-3" data-name="hair" class="cls-3" d="M1349.67 157.24s7-10.91 9.77-22.25a23.39 23.39 0 0 0-12.26-26.6c-8.26-4-14.38-.86-14.38-.86s8.76-14.91-4.39-28.09a23.87 23.87 0 0 0-17.59-7 23.06 23.06 0 0 0-21 14s-17.19-31.57-52.42-12.89c-3.55 1.89-7.56 7.14-9.47 10.68-11.64 21.44 26.71 46.84 46.68 48.85 21.92 2.21 34.75-1.42 41.81-6.79-5.26 3.19.65 35.99 33.25 30.95Z"/><path id="nose-3" data-name="nose" class="cls-1" d="m1290.93 160.61-2.37 20.65 7.28-1.86"/><ellipse id="eye_II-3" data-name="eye II" class="cls-3" cx="1282.29" cy="159.18" rx="2.12" ry="3.27"/><ellipse id="eye-3" data-name="eye" class="cls-3" cx="1301.76" cy="158.64" rx="2.12" ry="3.27"/><path id="brow-3" data-name="brow" class="cls-1" d="M1312.85 145.47a9.71 9.71 0 0 0-9.18-3.61"/><path id="brow_II-3" data-name="brow II" class="cls-1" d="M1284.24 141.52s-5.86-1.52-7.33 3.27"/><path id="mouth-3" data-name="mouth" class="cls-1" d="M1307 186.14s-1 6.26-6.75 5.25"/></g></g><g id="table"><path class="cls-1" d="M123.86 380.78h1348.21v373.71H123.86z"/><path class="cls-3" d="M121.3 380h1352.39v48.1H121.3z"/></g><path id="line-2" data-name="line" class="cls-1" d="M3 755.01h1592.1"/></g></g></svg>