<svg xmlns="http://www.w3.org/2000/svg" viewBox="0 0 1662.57 734.38"><defs><style>.cls-1,.cls-3,.cls-5,.cls-6{fill:none}.cls-1,.cls-5,.cls-6{stroke:oklch(68.5% 0.169 237.323)}.cls-1,.cls-3,.cls-5,.cls-6{stroke-linecap:round;stroke-linejoin:round}.cls-1,.cls-3{stroke-width:6px}.cls-2{fill:oklch(68.5% 0.169 237.323)}.cls-3{stroke:#2e186a}.cls-4{fill:#2e186a}.cls-5{stroke-width:8px}.cls-6{stroke-width:4.5px}</style></defs><g id="Layer_2" data-name="Layer 2"><g id="outline_III" data-name="outline III"><g id="whiteboard"><path id="shape" class="cls-1" d="M971.26 276.56h233.79a3.39 3.39 0 0 1 3.39 3.39v176.24"/><path id="shape-2" data-name="shape" class="cls-1" d="M809.82 276.56h99.15"/><path id="shape-3" data-name="shape" class="cls-1" d="M736.88 276.56h16.95"/><path id="shape-4" data-name="shape" class="cls-1" d="M495.73 602V280a3.39 3.39 0 0 1 3.39-3.39h27.72"/><g id="layout_III" data-name="layout III"><path class="cls-1" d="M1057.62 591.43H829.78V305.29h64.31M960.18 305.29h100.03v186.84"/><path class="cls-1" d="M864.72 351.06h-8.21v-21.54h21.99l-13.78 21.54zM857.6 350.47l7.59-1.72M856.51 438.44h47.89v47.89h-47.89zM904.4 438.44l-47.89 47.89M969.78 466.75v19.58h-47.89v-47.89h47.89v19.68M969.78 438.44l-47.89 47.89M987.28 456.19v-17.75h47.89v30.02M1035.17 438.44l-20.74 20.74M904.4 391.66v32.95h-47.89v-8.47M921.89 376.71h47.89v47.89h-47.89zM969.78 376.71l-47.89 47.9M987.28 376.71h47.89v47.89h-47.89zM1035.17 376.71l-47.89 47.9M872.17 523.31h49.44v41.65h-49.44z"/><path class="cls-1" d="M1036.36 564.96H856.51v-54.25h138.65M941.6 524.89h58.48M941.6 535.33h68.59M939.27 343.22h30.29M979.29 343.22h54.13"/></g><g id="layout_II" data-name="layout II"><path class="cls-1" d="M890.84 730.52v-121.6h183.72"/><path class="cls-1" d="M917.57 633.16h65.11v21.53h-65.11zM918.67 654.11l64-20.95M917.57 680.35h47.89v47.89h-47.89zM965.46 680.35l-47.89 47.89M982.96 680.35h47.89v47.89h-47.89zM1030.85 680.35l-47.89 47.89M1048.34 680.35h47.89v47.89h-47.89zM1096.23 680.35l-47.89 47.89M1000.33 646.86h30.3M1040.35 646.86h54.13"/></g><g id="layout"><path class="cls-1" d="M562.63 348.6h228.13v286.14H597M560.33 595.73V402.18"/><path class="cls-1" d="M589.19 372.84h62.97v21.53h-13.6M612.89 385.69l39.27-12.85M587.06 422.96h40.88"/><circle class="cls-1" cx="588.15" cy="440.3" r="3.19"/><circle class="cls-1" cx="588.15" cy="456.74" r="3.19"/><circle class="cls-1" cx="588.15" cy="473.19" r="3.19"/><circle class="cls-1" cx="588.15" cy="489.63" r="3.19"/><path class="cls-1" d="M599.78 440.3h31.91M599.78 456.74h22.71M599.78 473.19h14.44M599.78 489.63h35.73M587.06 508.36h65.1"/><circle class="cls-1" cx="588.15" cy="525.7" r="3.19"/><circle class="cls-1" cx="588.15" cy="542.14" r="3.19"/><path class="cls-1" d="M599.78 525.7h42.87M599.78 542.14h16.88M705.97 415.96h59.75v76.86h-95.9v-29.29M669.81 492.82l95.91-76.86M669.81 510.86h25.71v25.71h-25.71zM695.52 510.86l-25.71 25.71M704.91 510.86h25.71v25.71h-25.71zM730.62 510.86l-25.71 25.71M740.01 510.86h25.71v25.71h-25.71zM765.72 510.86l-25.71 25.71M686.59 566.62h38.4v33.53h-38.4z"/><path class="cls-1" d="M669.81 554.02h97.09v46.13h-97.09zM737.17 568.21h19.03M737.17 578.64h19.03M669.81 386.54h30.3M709.84 386.54h54.13"/></g><g id="post-it_s" data-name="post-it's"><path class="cls-2" d="M672.29 289.69h46.42v46.42h-46.42zM617.89 661.84h49.95v49.95h-49.95z"/><path class="cls-2" d="M599.28 659.51h46.42v46.42h-46.42zM1095.4 336.14h46.42v46.42h-46.42zM1109.1 386.28h46.42v46.42h-46.42zM1127.59 447.86h46.42v46.42h-46.42zM1074.15 437.64h46.42v46.42h-46.42zM1050.94 386.89h46.42v46.42h-46.42zM1041.34 331.67h46.42v46.42h-46.42zM723.48 657.14h46.42v46.42h-46.42zM708.17 453.83l-38.42-1.23-6.04-38.39 13.85-6.8h30.61v46.42z"/><path class="cls-2" d="M742.42 658.61h49.95v49.95h-49.95zM806.57 597.22h46.42v46.42h-46.42zM849.92 649.42h46.42v46.42h-46.42zM730.62 316.47h46.42v46.42h-46.42zM616.93 318.14h46.42v46.42h-46.42zM632.28 603.23h46.42v46.42h-46.42z"/></g></g><g id="woman"><g id="hand"><path class="cls-3" d="M868.4 362.82c-8.79 5-13.37 12.19-20 22.12-.57.86-17.17 27-18.88 33.83s6.38 7.67 18-13.32c0 0 12.48 16.14 21.34 12.62 4.51-1.79 25.91-28.37 26.61-34.49"/><path class="cls-3" d="M878.86 405.92s-1-8.66-5.1-4.73-12 14.24-12 14.24M872.13 400.4s.12-9.8-7-3.28c-4.21 3.84-10.43 12.69-10.43 12.69M864.88 395s-2.08-7-6.2-3.07-10.29 12.51-10.29 12.51"/><path class="cls-3" d="M858 372s-8.88 22.59-7.57 24.88c1.82 3.19 11-.37 15.44-10.42 0 0 9 6.94 16 3.1"/></g><g id="body"><path id="shirt" class="cls-3" d="M978.42 159.57c-19.47 12.5-35.17 26.34-39.54 38-7.7 20.62-36.26 94.85-36.26 94.85l-41.17 64 45 34.45 43.95-66.36 19.61-48 92.81-.26h0l100.76.26c11-.18 17.34-10.87 14.81-20.41 0 0-34.88-67.69-53.53-89.85-16.08-24.65-37.19-45.66-65.19-41.42a99.47 99.47 0 0 0-10.12 2.12"/><path id="line" class="cls-3" d="m1038.11 249.12 61-16.38-28.02-32.7"/><g id="hand_II" data-name="hand II"><path class="cls-3" d="M1024 253.57a134.06 134.06 0 0 0-24 1.72c-7.2 1.25-19.43 3.34-20.29 5-2 4 9.89 5.78 14.5 2.45"/><path class="cls-3" d="M994.93 268.8c-6.63 1.57-10 1.27-9-2 .74-2.33 16.46-10.53 19.7-11.47s32.51-5.2 32.51-5.2l14.57 27.68-43.72.69c-10.44.76-8.67-4.5-4.68-5.92s11.18-4.77 12.44-4.53c0 0-10.71 3-15.12 5.83-3.3 1.31-7.93-.79-8.57-1.79s2-3.77 7-6.3a100.5 100.5 0 0 1 11.59-4.78"/></g></g><g id="head"><g id="head-2" data-name="head"><path id="neck" class="cls-3" d="m973.52 149.91 6.55 12.9-10.48 6.7c.36 2.25 23.37 27.91 53.16 13.85 19.54-9.23 15.25-31.26 14.3-50.32l-14.1 7.45-14-34"/><path id="ear" class="cls-3" d="M1006.83 103.2s20.36-1.8 15-20c-4.06-13.83-17.44-10.13-23.67-7.54"/><path id="face" class="cls-3" d="M930.73 110.3c2.56 8.29 18.59 45.05 45.1 39.2s35.42-35.38 29.47-60.62-23.8-41.88-40.69-38.6-52.44.02-33.88 60.02Z"/><path id="mouth" class="cls-4" d="M970 122.69a17.9 17.9 0 0 1-10.25 4.88 1.61 1.61 0 0 0-1.25 2.29c1.29 2.89 4.42 7.34 11 4.93 6.89-2.52 4.69-8.57 3-11.65a1.61 1.61 0 0 0-2.5-.45Z"/><path id="nose" class="cls-3" d="m960.15 115.75-7.67 2.63-5.75-32.63"/><path id="brow" class="cls-3" d="M966.47 84.12s-7.4-4.05-10.93 1.6"/><path id="brow_II" data-name="brow II" class="cls-3" d="M939.57 91s-7.87-3-10.57 3.16"/><ellipse id="eye" class="cls-4" cx="963.72" cy="102" rx="2.69" ry="4.26" transform="rotate(-21.97 963.786 102)"/><ellipse id="eye_II" data-name="eye II" class="cls-4" cx="939.45" cy="112.21" rx="2.69" ry="4.26" transform="rotate(-21.97 939.513 112.203)"/><g id="hair"><g id="ponytail"><ellipse class="cls-4" cx="1033.24" cy="152.9" rx="18.74" ry="21.54" transform="rotate(-62.38 1033.313 152.875)"/><ellipse class="cls-4" cx="1033.64" cy="185.07" rx="16.73" ry="19.23" transform="rotate(-62.38 1033.704 185.04)"/><path class="cls-4" d="M1038.66 222.43c-3.76 6.65-13 8.58-20.71 4.32s-10.84-13.11-7.08-19.76 13.07-9.1 20.74-4.83 10.82 13.62 7.05 20.27Z"/><path class="cls-4" d="M1034.22 246.84c-5.67 5.35-5.45 10.37-3.9 14a2 2 0 0 1-2.68 2.59c-9.5-4.76-24.83-14.87-18.2-28.21 3.12-6.3 11.1-9.16 18.57-6.05s11.32 12.83 6.21 17.67Z"/><path class="cls-5" d="m1042.19 136.81-20.28-.88M1042.55 171.15l-17.07-1.84M1031.13 202.31l-5.18-1.29M1026.61 228.19l-5.25-1.02"/><path class="cls-4" d="M1036.55 84.22c-6.28-3.49-3.79 1.87-10 2.9-.74 14.4-12.69 14.82-18 14.27-4 11 1.65 24.37 13.77 31.11 13.33 7.4 26.07 2.28 32.6-9.27s-5.04-31.61-18.37-39.01Z"/></g><path id="hair-2" data-name="hair" class="cls-4" d="M1018.41 46.41C1009.89 37 980.26 32.2 966 41.92c-30.94-6.5-71-6.93-65.2 36.74a7.31 7.31 0 0 0 9.64 6l79.85-24.53a54.44 54.44 0 0 1 10.09 14.71c6.76-2.34 17.85-4 21.48 8.37 5 17.08-12.55 19.74-14.79 20a60.29 60.29 0 0 1-2.37 17.82c18.19-1 36-6 37-21.93 1.18-19.48-11.39-39.48-23.29-52.69Z"/></g><g id="glasses"><ellipse class="cls-6" cx="969.13" cy="93.46" rx="17.06" ry="23.06" transform="rotate(-23.96 969.316 93.442)"/><ellipse class="cls-6" cx="927.59" cy="110.84" rx="17.06" ry="23.06" transform="rotate(-23.96 927.779 110.829)"/><path class="cls-6" d="m940.86 98.72 9.82-4.15M980.89 79.55l24.17-6.45"/></g></g></g></g><g id="man"><g id="hand_II-2" data-name="hand II"><path id="hand-2" data-name="hand" class="cls-3" d="m1030.88 474.47-5.67-7.32a24.36 24.36 0 0 0-16.91-9.39c-7.48-.71-16.27-1.57-16.27-1.57s-18 1.53-20.82 1.68S954 463.4 954.42 465c1 3.89 12.7 2.72 18.82.94s18.91 2.13 18.91 2.13 2.47 11.35.06 11.12-15.5-2.72-17.93 1.15-1.89 7.08 3.27 7 12 4.09 12 4.09 18.81-1.18 23.6-3c.79-.3 1.72-.51 3 1.53"/></g><path id="shirt-2" data-name="shirt" class="cls-3" d="M1195.83 522.73a50.92 50.92 0 0 0-41.49-3.33L1103 537.62l-65.73-69.86-44.73 46.92 83.49 96a19.64 19.64 0 0 0 21.77 5.48l30.13-11.4-31.16 98"/><path id="shirt-3" data-name="shirt" class="cls-3" d="M1291.36 730a21.47 21.47 0 0 0 9.36-18.11L1299 604.6a40.46 40.46 0 0 0-22-37.41l-23-12.6"/><g id="hand_II-3" data-name="hand II"><path d="M1135.64 698.78a124 124 0 0 0-25 1.76c-7.7 1.4-20.79 3.73-22.11 5.73-3.12 4.71 8.63 7 14.22 3.09" style="stroke-width:5.64px;stroke:#2e186a;stroke-linecap:round;stroke-linejoin:round;fill:none"/><path class="cls-3" d="M1101.57 718.83c-7.67 1.85-11.29 1.4-9.27-2.72 1.43-2.93 20.8-13 24.6-14.07s36.91-5.91 36.91-5.91l8.49 35.19h-48c-11.61.74-8.26-5.85-3.52-7.56s13.49-5.79 14.8-5.46c0 0-12.5 3.57-18.08 7.05-4 1.58-8.45-1.16-8.88-2.44s3.23-4.7 9.3-7.8a126.64 126.64 0 0 1 14-5.79"/></g><path id="line-2" data-name="line" class="cls-3" d="m1150.81 696.39 88.38-19.63-3.08-42.85"/><g id="head-3" data-name="head"><path id="neck-2" data-name="neck" class="cls-3" d="M1257.61 533.8a24 24 0 0 1-.53 6.76l-5.15 23.25a24.1 24.1 0 0 1-28.75 18.32h0a24.1 24.1 0 0 1-18.32-28.75l3.58-16.17"/><path id="face-2" data-name="face" class="cls-3" d="M1276.29 498.89s19.27-37.53-18.52-57.6c-3.52-1.87-27.84-14.16-39.52 5.52-7.8 13.14-13.47 28.34-17 40.41 0 .07-7.08 22.7-2.32 38.14s24.84 20.8 37.3 18.08 15.43-5.29 20.76-11.63 19.3-32.85 19.3-32.85Z"/><path id="hair_II" data-name="hair II" class="cls-4" d="M1201.21 487.22c3.57-12.07 9.24-27.27 17-40.41.36-.61.74-1.18 1.12-1.73-6.36-4.95-16.62 5.27-23.71 26.26-3.62 10.86-13.62 16.33-13.62 16.33 7.67 6.71 14.57 3.79 19.13 0Z"/><path id="nose-2" data-name="nose" class="cls-3" d="m1219.08 480.26-8.14 20.45 6.71 2.46"/><ellipse id="eye_II-2" data-name="eye II" class="cls-4" cx="1211.66" cy="478.04" rx="3.29" ry="2.12" transform="rotate(-66.78 1211.648 478.043)"/><ellipse id="eye-2" data-name="eye" class="cls-4" cx="1230.16" cy="486.4" rx="3.29" ry="2.12" transform="rotate(-77.55 1230.225 486.382)"/><path id="brow_II-2" data-name="brow II" class="cls-3" d="M1246.48 480.26a9.74 9.74 0 0 0-7.42-6.56"/><path id="brow-2" data-name="brow" class="cls-3" d="M1221.29 465.24s-5.91-5.41-10.35-2.23"/><path id="cap" class="cls-2" d="m1316.64 487.79-20.4-10.35c2.56-15.2 1-38.71-27.53-52-44.56-20.7-60.86 23.93-60.86 23.93L1310 501a7.38 7.38 0 0 0 6.67-13.16Z"/><path id="mouth-2" data-name="mouth" class="cls-4" d="M1214.28 518.15c-4.55-9.26 16.69-3 16.69-3s-5.97 21.36-16.69 3Z"/><path id="hair-3" data-name="hair" class="cls-4" d="m1293.83 492.8-43.08-21.74c-5 15.59-11.27 46.9 15.41 55.11 0 0 20.86 6.91 26.86.06 0 0-14.32-10.51-11.07-19.08 0 0 14.66 21.68 31.84 10.16 0 0-20.34-6.52-19.96-24.51Z"/></g></g><g id="sitting_woman" data-name="sitting woman"><g id="hand-3" data-name="hand"><path id="finger" class="cls-3" d="M620.57 572.88s20.17-5.45 31.63-16.4c6.83-6.53 15.6-15.35 15.45-18.22-.3-5.38-11.59 2.89-13.43 4"/><path id="hand-4" data-name="hand" class="cls-3" d="m613.57 579.88 1.83-4.47c10.87-4.51 18.24-9.32 23-13.56 6.11-5.49 23.26-28.32 23.12-30.75-.39-6.47-11-3.75-16.4 8"/><path id="hand-5" data-name="hand" class="cls-3" d="M631.52 555.05s9.56-8.28 13-15.16 5.64-12.17 4.48-13.1-7.32.73-9.82 4.8c-2.74 6.92-13.94 16.26-13.94 16.26 1.35-.54 8.24-8.17 11.38-12.9s3.29-12.12-6.45-3.87c0 0-10.29 9.17-14.26 11.9 0 0-18 6.76-22.47 14.41h0c-1 1.77-4.51 7.58-9.39 15.49"/></g><path id="sleeve" class="cls-3" d="m557.7 603.21 17.77-32.34 41.23 9.75-35.35 87.7"/><path id="shape-5" data-name="shape" class="cls-3" d="m376.37 565.81-32.44-1.19v-.32h-11.26c-12.2 0-28.81 13-30.63 27.08-3.34 25.86-19.84 61.49-26.75 91.23a457.2 457.2 0 0 0-13 47.92"/><path id="shape-6" data-name="shape" class="cls-3" d="M476.07 602a32.21 32.21 0 0 0-4-7.79c-15.86-21.43-41.33-25.9-52.89-26.8"/><g id="head-4" data-name="head"><g id="earrings_back" data-name="earrings back"><path class="cls-1" d="M374.53 562c-6.18.76-12.38-6.54-13.91-16.46a24.38 24.38 0 0 1 1.68-14.12M460.05 558.94c-6.18.76-12.38-6.54-13.92-16.46"/></g><path id="ponytail-2" data-name="ponytail" class="cls-4" d="M367.65 459.73c13.17-9.72 21.89-60.67-13.82-94.85-36.16-34.59-66.26.76-72.95 10.07s-11.73 34.92 19.54 59.12 52.18 36.76 67.23 25.66Z"/><path class="cls-2" d="m386.77 482.29-.82.53a11.25 11.25 0 0 1-15.09-3l-9.62-13.46a10.05 10.05 0 0 1 2.61-14.44l.82-.53a11.24 11.24 0 0 1 15.08 3l9.62 13.46a10 10 0 0 1-2.6 14.44Z"/><path id="ear-2" data-name="ear" class="cls-3" d="M376.38 529.38a12.28 12.28 0 0 1-12.1.74c-6.07-2.89-8.75-9.92-6-15.69a11.57 11.57 0 0 1 10.86-6.43"/><path id="ear-3" data-name="ear" class="cls-3" d="M449.14 504.5a12.49 12.49 0 0 1 8.7.81c6.07 2.89 8.76 9.92 6 15.69a11.73 11.73 0 0 1-13.25 6.15"/><path id="neck-3" data-name="neck" class="cls-3" d="m419.14 565.47.23 5.9 14.48 3.18c.43 1.26.89 13.59-4.53 24"/><path id="neck-4" data-name="neck" class="cls-3" d="M417.77 610.19c-4.91 2.44-11.28 3.55-19.49 2.43-24.45-3.33-35.88-25.21-42.43-45.23l20.74 1.45.08-41.31"/><ellipse id="face-3" data-name="face" class="cls-3" cx="411.55" cy="515.23" rx="38.45" ry="49.43" transform="rotate(-10.41 411.53 515.21)"/><path id="nose-3" data-name="nose" class="cls-3" d="m415 527 7.33-.25a1.17 1.17 0 0 0 1.09-1.48l-5.27-20"/><path id="brow_II-3" data-name="brow II" class="cls-3" d="M394.71 495.54s6.48-5.81 11.9-1"/><path id="brow-3" data-name="brow" class="cls-3" d="M424.3 493.71s8.3-3.11 11.64 3.23"/><ellipse id="eye_II-3" data-name="eye II" class="cls-4" cx="405.69" cy="511.88" rx="4.38" ry="2.93" transform="rotate(-88.14 405.657 511.87)"/><ellipse id="eye-3" data-name="eye" class="cls-4" cx="433.03" cy="512.91" rx="2.92" ry="4.39" transform="rotate(-4.14 433.29 513.21)"/><g id="earrings_front" data-name="earrings front"><path class="cls-1" d="M455.75 521.61c6.25-1 11.48 7.34 13 17.38s-2.26 19-8.51 19.92h-.22M369.14 525.57c6.25-1 12.58 6.39 14.13 16.43s-2.27 19-8.52 19.92h-.22"/></g><path id="mouth-3" data-name="mouth" class="cls-3" d="M416.46 541.41s-16.72 10.37-17.57-12.15Z"/><path id="hair-4" data-name="hair" class="cls-4" d="m397.67 455.14-.09.11c-12.51 1.83-26.48 7.56-34.26 15.93-13.78 14.81-7.45 46.63 6.59 48.8a33.65 33.65 0 0 0 3.51.33c-.12-.8-.23-1.6-.32-2.41a62.58 62.58 0 0 1-.38-8.7c19.13-7.15 19.1-35.83 19.06-38.23 4.06 3.24 9.38 8.78 8 14.84l42.33 2.67a61.58 61.58 0 0 1 7.9 24.07v.34c4-5.67 4.14-14.5.82-23.86l14.31.91s13.12-48.34-67.47-34.8Z"/></g><g id="lines"><path class="cls-3" d="m406.09 672.18-55.25-.2 5.01-38.86M280.79 686.68c-4 15.75 9.1 34.71 25.35 35.05l27.43-.06"/><path class="cls-3" d="M351.68 672.11s-13.51-6-23.26 8.5M351.4 667.52s-12.54-11.28-28.27 1.67"/></g><path id="laptop" class="cls-3" d="m332.5 706.7 66.08.69L420.35 605a4.6 4.6 0 0 1 4.43-3.84l161 2.45c2.93 0 5.1 3.13 4.43 6.3l-20.47 109.21c-1.42 6.76-10 12-16 11.9-39.55-.64-198.83-2.91-203.49-3-21.41-.31-17.75-21.32-17.75-21.32Z"/></g><g id="designer"><g id="hand-6" data-name="hand"><path class="cls-3" d="M662.4 414.67s12.36-4 18.12-11.54c10.07-13.25-11.34-1.83-23.49-.1"/><path id="hand-7" data-name="hand" class="cls-3" d="m578.33 310.57-17.6 42.64s39.72 31.39 68.86 38.42c25.11 7.27 27.13 10.75 27.13 10.75s10.14 20.67 11.24 28.27 5.11 32.32 1.16 32.87c-2.81.39-7.47-11.79-9.64-18.15"/><path id="hand-8" data-name="hand" class="cls-3" d="M636 433c-3.86-5.85-9.89-11.43-9.78-15.88 0 0-39.72 3.07-106.23-36.43-6.85-4.07-9.35-12.9-9.81-20.85-1.12-19.4 2.13-57.91 17.89-85.55"/><path class="cls-3" d="M662 430.62s-.77 18.21-6.69 20.06-6.69-3.21-6.69-3.21"/><path class="cls-3" d="M654.69 430.54s-2.07 16.16-8.11 17.57-6.44-3.7-6.44-3.7"/><path class="cls-3" d="M645.68 430.23s-2.79 19.39-10.13 12.68-6.89-10.46-6.89-10.46 2.87-5.49 8.73 2.49"/></g><path id="arm" class="cls-3" d="M745.09 190.07c10.46 17.5 27 45.41 35.25 60"/><path id="shirt-4" data-name="shirt" class="cls-3" d="M683 149.84c45.88-5.08 64.79 32.53 64.79 32.53s-13.54 32.08-27.79 42.22c0 0 30.71 23.29 16.84 52l-137.18 1.21-19.07 35.1-55.88-39.65s29.12-57.51 37.3-64c4.34-3.46 19.15-17.34 42-31"/><g id="head-5" data-name="head"><path id="neck-5" data-name="neck" class="cls-3" d="M663.14 174c3.59 9.1 5.5 25.67-19.66 37.73-23 11-54.15-2.67-65.94-14.46l28.65-20.92 4.5-19.51"/><path id="ear-4" data-name="ear" class="cls-3" d="M604 130.87s-22-1.55-17-21c3.75-14.78 18.31-11.09 25.12-8.44"/><path id="face-4" data-name="face" class="cls-3" d="M686.14 137c-2.39 8.86-18 48.27-46.78 42.52s-39.66-37-34.38-63.94 23.75-45 42-41.8 56.46-.91 39.16 63.22Z"/><g id="hair-5" data-name="hair"><path class="cls-2" transform="rotate(171.51 618.51 42.179)" d="M613.24 32.9h10.54v18.55h-10.54z"/><circle class="cls-4" cx="613.87" cy="18.56" r="18.56"/><path id="hair-6" data-name="hair" class="cls-4" d="M625.37 44.75c17.17-2.07 35-1.16 49.19 7.82 42.42 29.74 35.93 64.74 13.41 77 5.42-24.63 1.64-37.8-5.81-45.07-12.11 13.08-44.6 20.24-72.18 15.35-.11.23-.21.47-.31.71-7.37-2.37-19.38-3.93-22.73 9.29-4.62 18.25 14.35 20.77 16.79 21 0 1.52 6.76 26.9 6.76 26.9l-4.26 14.36-65.54-17.92A5.58 5.58 0 0 1 537 146c11.49-20.54 33-93.82 88.37-101.25Z"/></g><path id="mouth-4" data-name="mouth" class="cls-3" d="M649.53 157.68s-7.36 1.21-8.47-7.6"/><path id="nose-4" data-name="nose" class="cls-3" d="m654.74 143.36 8.36 2.66 4.74-34.82"/><path id="brow-4" data-name="brow" class="cls-3" d="M644.42 101.46s8.25-3.5 11.57 2.88"/><path id="brow_II-4" data-name="brow II" class="cls-3" d="M679.05 114s7.12-1.39 8.68 4.22"/><ellipse id="eye-4" data-name="eye" class="cls-4" cx="644.38" cy="120.99" rx="4.5" ry="2.91" transform="rotate(-67.01 644.35 120.996)"/><ellipse id="eye_II-4" data-name="eye II" class="cls-4" cx="675.17" cy="132.56" rx="4.5" ry="2.91" transform="rotate(-67.01 675.147 132.563)"/><g id="glasses-2" data-name="glasses"><ellipse class="cls-1" cx="639.9" cy="112.77" rx="24.36" ry="18.48" transform="rotate(-70.68 639.902 112.775)"/><ellipse class="cls-1" cx="689.06" cy="131.12" rx="24.36" ry="18.48" transform="rotate(-70.68 689.055 131.12)"/><path class="cls-1" d="m672.15 121.41-13.83-4.89M623.46 101.98l-17.23-2.13"/></g></g><g id="hand-9" data-name="hand"><path class="cls-3" d="M800.36 279.19c4.09 11.31 0 36.39 9.08 21.09 3.09-13.14-.9-30-7.26-37.33-4.55-6.18-7.84-13.49-23.82-11.66s-16.74 10.86-16.74 10.86-8.84 13.23-7 19 3.64 6.55 2 10.13 5.72 11.4 8.64 5.81 3-18.51 2.19-21c-.71-2.21 3.83-4.06 4.73-4.41l.15-.05h.5c4.19 4.95 3.86 38.19 8.32 39.12s5.15-2 5.15-2"/><path class="cls-3" d="M795.56 309.5a8 8 0 0 1-4.12 2.1c-7.32 1.29-4.67-26.74-8.09-32.91M804.79 304c-1.46 3.54-3.37 6.48-5.75 6.75-6.26.72-4.27-24.6-6.63-32"/></g></g><path id="line-3" data-name="line" style="fill:#fff;stroke:#2e186a;stroke-width:6px;stroke-linecap:round;stroke-linejoin:round" d="M3 730.44h1656.57"/></g></g></svg>