<svg width="1770" height="441" viewBox="0 0 1770 441" fill="none" xmlns="http://www.w3.org/2000/svg">
<path d="M1267.08 369.927C1255.44 375.505 1243.8 380.985 1232.15 386.562C1231.47 386.758 1230.88 386.856 1230.59 386.954C1230.78 386.954 1231.47 386.66 1232.05 386.464C1235.09 386.464 1238.12 386.464 1241.15 386.464L1241.06 386.367C1215.23 401.534 1187.73 402.414 1159.36 395.858C1117.68 386.171 1086.86 360.534 1060.64 328.243C1057.7 324.622 1055.16 320.61 1052.32 316.892C1049.68 313.467 1046.84 310.14 1041.66 311.315V311.412C1041.95 310.042 1042.15 308.673 1042.83 305.346C1022.78 315.718 1004.19 325.405 985.695 334.995C985.01 335.092 984.325 335.288 984.032 335.288C984.325 335.288 984.912 334.994 985.499 334.897C992.446 333.233 999.392 331.57 1006.34 330.004L1006.53 330.298C992.054 339.006 976.204 344.193 959.865 348.009C958.691 348.302 957.419 348.596 956.441 348.302C930.122 341.844 902.042 350.161 876.31 338.126C867.309 333.918 857.329 331.765 847.839 328.341C842.849 326.481 838.74 326.971 835.315 331.276C832.87 334.31 830.619 337.539 827.88 340.278C824.945 343.312 821.618 345.856 818.487 348.694H818.585C816.726 345.856 814.574 344.584 810.953 346.052C808.997 346.835 806.649 346.248 804.398 346.345C803.42 344.486 802.441 342.627 800.387 338.811C784.145 362.687 761.349 377.462 741.096 395.075C752.543 391.846 761.153 384.507 769.567 376.973C781.21 366.601 792.853 356.326 804.594 346.052C805.377 355.641 798.039 362.001 794.908 369.927L795.103 369.634C794.223 370.515 793.342 371.395 792.56 372.178L792.755 371.982C790.994 372.667 788.842 372.961 787.374 374.037C770.35 387.247 753.424 400.555 735.226 414.841C743.542 411.123 750.489 408.09 757.435 404.958L757.337 404.861C749.021 410.634 740.607 416.113 732.388 422.18C716.734 433.727 699.808 437.739 680.436 433.14C674.467 431.672 667.423 433.825 660.965 434.999C634.353 439.891 609.795 433.531 586.216 421.593C579.563 418.266 573.008 414.646 567.04 410.34C561.267 406.23 561.854 402.61 567.724 398.402C574.573 393.412 581.716 392.825 589.836 395.271C600.599 398.598 611.752 401.24 622.808 403.197C648.638 407.894 673.391 403.197 697.068 392.531C722.311 381.083 743.933 364.35 763.697 345.171C777.395 331.863 791.483 318.751 801.463 302.116C802.637 300.159 803.518 298.007 804.692 295.462C802.344 292.723 800.191 289.983 797.843 287.439C751.369 236.262 733.562 175.692 739.824 107.685C741.487 89.6807 746.966 72.361 755.478 56.3134C757.729 52.0079 762.523 49.1703 767.121 44.767C766.241 43.2014 762.816 40.2659 766.632 35.6669C776.318 23.8268 785.907 11.8889 799.995 4.84355C808.312 0.733787 816.922 -2.10384 826.803 2.00592C810.464 7.58346 792.462 10.0297 782.58 28.5236C794.223 28.23 799.995 18.8363 808.703 15.7051C817.411 12.5738 825.923 8.56197 835.707 4.45221C849.991 9.24693 862.613 18.2492 872.005 32.0463C897.444 69.0341 907.325 109.838 903.118 154.459C898.618 201.819 885.018 246.341 863.004 288.417C857.134 299.67 858.014 301.921 870.146 306.03C898.422 315.718 926.893 315.816 955.56 307.792C979.237 301.236 1000.27 289.396 1020.53 275.99C1030.31 269.532 1030.41 269.141 1027.47 257.79C1016.32 214.931 1015.83 171.876 1025.91 128.919C1030.9 107.49 1038.14 86.7453 1051.54 68.9363C1056.92 61.891 1063.09 55.1392 1069.84 49.4638C1086.27 35.7646 1106.53 36.4496 1121.69 51.5188C1142.24 71.774 1151.73 96.9219 1152.61 125.397C1153.1 141.444 1150.07 157.101 1144.19 172.17C1142.14 177.454 1142.24 183.618 1140.38 189C1126.88 226.869 1106.43 260.138 1076.2 287.145C1066.8 295.56 1066.8 298.202 1074.14 308.868C1108.58 358.772 1177.56 376.484 1233.13 349.183C1244.28 343.703 1254.46 336.169 1265.03 329.613C1270.51 326.188 1271.68 322.078 1268.65 315.816C1245.36 267.575 1241.15 216.594 1249.08 164.537C1253.87 133.42 1264.83 103.967 1281.66 77.1558C1290.17 63.4566 1300.44 51.1273 1315.81 44.1799C1337.62 34.2969 1355.33 38.211 1370.01 56.9006C1387.62 79.2108 1395.25 105.337 1397.6 133.029C1402.2 186.75 1389.97 236.556 1359.34 281.176C1348.09 297.615 1335.47 313.076 1323.05 328.634C1315.22 338.321 1314.92 340.376 1325.2 348.204C1357 372.276 1392.32 378.636 1430.67 368.46C1459.24 360.925 1483.8 345.954 1505.52 326.09C1513.73 318.653 1513.54 317.87 1506.3 308.966C1465.89 259.062 1453.86 202.504 1467.16 140.27C1471.76 118.84 1481.25 99.9552 1499.16 85.7668C1530.56 60.9125 1573.81 69.9148 1593.38 105.141C1611.57 137.824 1614.71 172.561 1608.54 208.57C1607.37 215.518 1606.39 223.64 1597.97 226.771L1598.07 226.673C1602.18 232.74 1601.99 238.806 1598.76 245.46C1589.66 264.444 1580.95 283.525 1572.14 302.606C1570.78 305.639 1569.6 308.868 1567.74 313.467C1574.98 315.033 1580.85 316.305 1587.31 317.675C1585.06 324.231 1578.02 320.317 1574.79 323.644C1586.23 331.863 1614.12 327.558 1625.17 314.348C1619.21 315.424 1614.8 316.403 1610.3 317.088C1606.19 317.675 1601.99 318.066 1597.39 316.794C1599.34 315.914 1601.2 314.837 1603.26 314.25C1661.77 296.539 1708.53 262.193 1744.64 213.267C1749.43 206.809 1752.37 198.883 1756.28 191.74C1757.16 190.174 1759.02 187.924 1760 188.119C1761.86 188.511 1764.11 190.076 1765.08 191.74C1770.56 201.134 1771.15 211.115 1766.26 220.9C1752.66 248.005 1736.32 273.055 1713.13 293.114C1702.76 302.019 1692.39 310.923 1681.33 318.947C1668.13 328.634 1653.45 335.582 1636.72 340.866C1638.38 338.126 1639.26 336.658 1640.34 334.897C1601.59 346.639 1570.29 343.801 1558.84 342.235C1559.33 343.899 1559.72 345.171 1560.11 346.345H1560.21C1548.76 342.627 1540.64 346.541 1532.42 355.152C1518.92 369.145 1504.15 381.963 1486.44 390.77C1482.33 392.825 1477.83 394.195 1473.52 395.956L1473.03 395.369C1473.82 393.803 1474.5 392.336 1475.28 390.77H1475.97L1475.38 390.966C1455.91 396.25 1436.54 401.534 1417.07 406.818H1440.35C1428.32 413.178 1413.84 414.059 1405.72 407.796C1400.73 416.016 1392.9 414.352 1385.08 412.982C1355.14 407.796 1330.29 393.02 1309.35 371.591C1292.42 354.173 1294.48 356.718 1276.87 368.264C1272.95 370.808 1268.55 372.472 1264.44 374.624L1264.54 374.722C1265.22 373.059 1265.91 371.493 1266.59 369.83L1267.08 369.927ZM1591.13 226.477L1591.42 226.086L1591.22 226.673H1591.13V226.477ZM1480.86 374.526C1479.2 375.211 1477.53 375.994 1475.87 376.679C1462.47 380.985 1448.96 385.192 1433.02 390.281C1446.52 392.825 1458.06 388.617 1475.68 376.581C1477.34 375.896 1479 375.114 1480.76 374.429H1480.86V374.526ZM1469.12 362.882L1464.23 365.133C1444.95 370.808 1425.68 376.386 1404.84 382.452C1417.95 385.584 1437.13 383.04 1449.45 376.19C1454.74 373.254 1459.24 368.753 1464.13 365.035C1465.79 364.252 1467.36 363.567 1469.02 362.784H1469.12V362.882ZM1267.37 355.935C1267.37 355.935 1268.26 355.25 1268.65 354.858C1268.26 355.25 1267.86 355.641 1267.47 356.033L1262.29 358.185C1253.38 362.197 1244.09 365.328 1236.65 371.884C1247.02 370.612 1255.63 366.307 1262.19 358.088C1263.95 357.403 1265.61 356.62 1267.37 355.935ZM1633.39 313.467C1634.27 312.782 1635.06 312.195 1635.94 311.51C1635.15 312.195 1634.37 312.88 1633.59 313.565H1633.49L1633.39 313.467ZM1321.09 66.7836C1324.61 65.0222 1329.99 66.2944 1331.56 61.4996C1330.97 60.8147 1330.48 60.0319 1329.89 59.3469C1326.96 61.891 1324.02 64.4351 1321.19 66.8814H1321.09V66.7836ZM792.755 41.0486C786.102 40.9507 786.2 45.8434 785.809 50.4424H785.711C790.603 49.0725 792.657 45.7455 792.755 40.9508C793.538 40.168 794.419 39.2873 795.201 38.5045C801.365 34.0033 807.431 29.4043 813.595 24.9031C813.008 24.2182 812.421 23.5331 811.932 22.8482C803.713 25.0009 797.647 29.6978 795.397 38.6023C794.614 39.3851 793.734 40.2658 792.951 41.0486H792.755ZM1323.34 78.4279C1326.47 77.6451 1329.7 76.8622 1332.83 76.0794C1308.86 96.4325 1293.69 122.461 1284.5 152.208C1276.87 176.671 1273.25 201.721 1273.44 227.358C1273.64 248.592 1276.18 269.434 1283.22 289.591C1284.99 294.582 1287.63 299.279 1290.56 305.737C1294.87 301.725 1298.19 299.181 1300.84 295.952C1309.74 285.09 1318.74 274.229 1326.96 262.878C1345.65 236.947 1359.93 208.864 1367.27 177.552C1373.53 150.936 1375.59 124.418 1367.95 97.6067C1363.75 83.0268 1354.94 74.9053 1339.68 74.0246C1340.17 72.7526 1340.75 71.3825 1341.64 69.0341C1333.32 69.6212 1327.84 73.144 1323.44 78.6237L1323.34 78.5257V78.4279ZM999.588 315.816C1013.87 312.782 1025.32 304.758 1035.98 295.267C1024.44 300.159 1013.48 306.128 1002.62 312.391C1001.35 313.076 1000.66 314.739 999.784 315.914H999.099L999.686 315.816H999.588ZM1642.88 322.959C1633.1 325.307 1623.12 327.362 1613.43 330.102C1603.75 332.94 1592.79 329.808 1582.61 336.756C1605.41 339.496 1624.78 334.212 1642.69 322.763H1642.79L1642.88 322.959ZM1262.48 341.844C1252.7 346.541 1242.92 351.434 1233.03 355.837C1223.44 360.142 1213.66 363.958 1204.07 368.068L1205.25 370.612C1227.55 367.775 1247.12 359.164 1262.39 341.746H1262.48V341.844ZM1097.92 74.2202C1098.6 73.046 1099.19 71.774 1100.36 69.5234C1094.59 70.2084 1090.77 71.3826 1088.43 76.4709C1090.58 76.7645 1091.66 76.8622 1092.83 76.9601C1088.62 80.1892 1082.85 82.4397 1080.4 86.7452C1069.35 105.924 1059.76 125.788 1054.38 147.707C1046.65 178.921 1045.77 210.136 1050.27 241.742C1050.56 244.091 1052.03 246.341 1053.79 250.549C1061.42 242.525 1068.17 236.067 1074.04 229.021C1096.94 201.427 1115.43 171.387 1123.45 135.867C1126.39 122.852 1127.95 109.74 1124.72 96.4325C1120.71 80.1892 1115.33 75.5902 1097.92 74.3182V74.2202ZM1518.33 114.144H1518.43C1516.77 116.59 1515.3 119.33 1513.44 121.776C1508.94 128.039 1503.56 133.91 1499.74 140.564C1489.86 157.981 1486.73 177.356 1486.05 196.926C1484.87 232.153 1495.73 263.074 1521.17 288.124C1524.3 291.255 1528.21 293.505 1531.84 296.147C1533.99 294.093 1535.36 293.212 1536.24 291.94C1560.5 258.768 1578.8 222.857 1586.53 182.15C1589.56 166.298 1589.95 150.349 1585.06 134.595C1582.22 125.592 1577.33 118.253 1568.52 114.437C1561.38 111.404 1553.85 109.251 1546.51 106.707C1545.92 106.511 1545.53 105.826 1545.04 105.337C1546.61 104.456 1547.98 103.674 1550.72 102.206C1538.29 101.032 1528.7 102.989 1527.33 106.511C1528.31 107.294 1529.29 108.077 1531.35 109.838C1526.26 111.502 1522.25 112.774 1518.24 114.046L1518.33 114.144ZM790.407 69.5234H790.505C782.287 82.8312 777.101 97.4111 774.655 112.969C771.426 133.91 770.448 154.948 773.09 175.986C777.199 208.375 787.276 238.415 808.507 263.856C811.638 267.575 815.454 270.804 819.759 275.012C822.792 270.706 825.238 267.673 827.097 264.346C832.772 254.071 838.838 243.993 843.73 233.425C861.634 195.165 873.864 155.437 873.082 112.676C872.397 77.8408 864.08 46.1369 831.891 26.0773C819.857 28.4257 811.149 36.3517 802.344 43.9841C800.387 45.6476 797.941 48.4853 798.039 50.5402C798.626 58.3683 794.027 63.6523 790.309 69.5234H790.407ZM700.982 401.631C700.982 402.219 701.178 402.904 701.178 403.491C703.721 402.904 706.461 402.806 708.711 401.631C718.299 396.543 728.768 392.238 737.085 385.584C756.163 370.221 774.264 353.488 792.755 337.343C796.962 333.625 797.647 328.928 797.745 321.687C784.243 330.2 778.275 343.703 767.513 352.314C756.75 360.729 746.771 370.123 735.813 378.245C724.561 386.562 712.527 393.901 700.884 401.631H700.982ZM937.656 320.219C939.612 321.98 940.102 322.861 940.689 322.861C943.037 322.861 945.385 322.861 947.635 322.47C976.791 317.871 1001.94 303.682 1026.69 288.809C1029.33 287.243 1031.48 284.895 1029.14 280.1C1014.36 288.026 1000.37 296.539 985.597 302.997C970.432 309.651 954.484 314.25 937.753 320.219H937.656ZM1515.99 84.9839C1529.29 86.7453 1542.79 84.299 1548.37 79.3085C1536.14 77.1558 1525.48 76.9601 1515.99 84.9839ZM1338.31 49.2682C1327.45 43.7885 1321.09 45.6476 1315.22 55.4328C1323.44 56.2156 1330.19 53.4758 1338.31 49.2682ZM1073.65 56.2156C1081.19 56.4113 1088.23 55.335 1094.79 48.7789C1084.9 46.3326 1078.54 49.1703 1073.65 56.2156ZM1537.51 94.2798C1537.22 93.2034 1536.92 92.0293 1536.63 90.9529C1531.64 92.3228 1526.65 93.6927 1521.66 95.0626C1521.95 96.0412 1522.15 96.9217 1522.44 97.9003C1527.43 96.726 1532.52 95.454 1537.51 94.2798ZM1087.35 61.7932C1086.57 62.3803 1085.69 62.9673 1084.81 63.6522C1085.39 64.2394 1086.27 65.5115 1086.57 65.4137C1087.45 65.1201 1088.13 64.2394 1088.92 63.5544C1088.43 63.0652 1088.03 62.576 1087.35 61.891V61.7932ZM783.167 56.4113C782.482 56.2156 781.895 56.0198 781.21 56.0198C781.112 56.0198 780.623 56.8028 780.721 56.9006C781.112 57.3899 781.699 57.6834 782.189 58.0748C782.482 57.4877 782.874 56.9984 783.167 56.4113ZM1110.05 58.9554C1110.05 58.9554 1110.64 58.564 1110.93 58.3683C1110.54 57.8791 1110.24 57.3898 1109.85 56.9984C1109.85 56.9984 1109.36 57.292 1109.07 57.4877C1109.46 57.977 1109.76 58.3684 1110.15 58.8576L1110.05 58.9554ZM845.295 310.434C845.295 310.434 844.806 310.629 844.512 310.727C844.512 311.021 844.61 311.412 844.806 311.51C845.002 311.51 845.295 311.412 845.589 311.315C845.491 311.021 845.393 310.825 845.295 310.532V310.434ZM776.612 68.1535C777.101 67.8599 777.492 67.6643 777.786 67.4686C777.492 67.3707 777.297 67.2728 777.003 67.0771C776.905 67.3707 776.807 67.6642 776.612 68.1535Z" fill="black"/>
<path d="M524.968 322.861C518.902 329.808 520.957 336.756 526.143 342.725C536.122 354.075 546.493 365.23 557.06 375.994C564.887 384.018 563.419 392.335 551.874 397.619C551.092 395.564 550.407 393.607 549.331 390.77C541.308 393.803 535.633 389.4 530.447 383.822C522.229 375.016 513.913 366.209 505.89 357.305C501.878 352.901 497.867 350.063 491.997 353.586C492.779 351.825 493.562 350.063 494.345 348.4L492.486 347.03C488.572 350.846 484.659 354.663 480.745 358.381C479.18 359.066 477.516 359.751 475.951 360.534C475.168 361.316 474.385 362.197 473.603 362.98L473.505 362.882C474.288 362.001 475.07 361.219 475.853 360.338C477.418 359.653 479.082 358.968 480.647 358.283L492.192 353.488C490.627 355.25 489.355 357.207 487.496 358.577C458.242 380.398 425.955 394.977 389.265 398.109C346.02 401.827 308.645 386.758 275.869 359.751C264.52 350.357 255.225 338.517 245.05 327.851C241.332 323.937 237.712 319.827 233.994 315.815H234.092C230.276 310.727 228.123 315.522 226.069 317.675C217.067 326.873 208.262 336.364 199.359 345.66C193.684 351.531 187.911 357.304 182.139 363.176L182.334 362.98C181.454 363.861 180.573 364.741 179.791 365.524L179.986 365.328C176.758 367.775 173.529 370.123 170.398 372.569L170.594 372.374C169.713 373.254 168.833 374.135 168.05 374.918L168.246 374.722C166.68 375.505 165.213 376.288 163.647 377.071C162.864 377.853 162.082 378.734 161.201 379.517L161.103 379.419C161.886 378.636 162.669 377.755 163.549 376.973C165.115 377.07 166.68 377.168 168.343 377.364L168.148 377.168C165.31 379.81 162.767 382.844 159.734 385.094C139.187 400.261 116.488 411.906 92.9091 421.299C76.6678 427.758 59.7416 432.454 43.011 437.641C32.4443 440.967 21.4863 441.359 10.5283 439.598C2.01624 438.326 -0.429749 437.543 0.0594488 427.464C0.842165 426.877 1.62489 425.703 2.60329 425.605C39.6845 420.419 72.852 404.958 104.748 386.268C145.645 362.295 180.867 331.765 211.295 295.364C216.48 289.102 217.361 284.014 213.839 276.479C186.052 217.67 180.084 155.828 189.379 92.1269C191.825 75.59 195.836 59.151 201.217 43.2991C204.446 33.6118 210.317 24.1202 217.165 16.3899C229.591 2.495 244.756 1.61433 260.313 11.7909C275.38 21.6739 286.631 35.0795 294.361 51.3228C316.179 97.1173 319.212 144.575 304.83 192.914C294.459 227.651 277.728 259.355 255.127 287.83V288.026C255.127 286.46 255.127 284.796 255.127 283.231L255.225 283.329C254.344 284.894 253.562 286.46 252.681 288.026L252.779 287.83C252.779 288.711 252.779 289.591 252.779 290.472H252.583C254.246 295.854 254.834 302.116 257.867 306.715C264.52 316.794 271.858 326.481 279.978 335.484C305.123 363.371 337.117 372.765 373.415 367.775C410.79 362.588 443.37 346.149 471.842 321.589C478.593 315.718 478.69 315.522 474.581 306.617C461.568 278.24 453.546 248.591 451.589 217.377C449.045 175.594 457.557 136.454 480.941 101.325C488.376 90.1699 497.573 80.7762 510.488 75.3944C523.794 69.8168 536.513 70.5018 548.548 78.1342C576.334 95.7475 590.423 121.58 592.771 153.969C594.728 180.976 587.977 206.711 579.856 232.055C571.442 258.279 559.212 282.742 542.482 304.66C538.079 310.434 532.404 315.424 527.317 320.708H527.414C527.414 319.24 527.317 317.675 527.219 316.109C528.001 315.326 528.784 314.543 529.567 313.761C530.35 312.978 531.23 312.097 532.013 311.314L532.111 311.412C531.328 312.195 530.447 313.076 529.665 313.858C528.882 314.641 528.099 315.424 527.317 316.207C523.599 318.36 519.979 320.61 518.805 326.775C521.838 325.014 523.403 324.133 524.968 323.154H524.773L524.968 322.861ZM233.896 41.1463L233.7 40.9506C234.581 40.2656 235.559 39.5806 236.44 38.8956C237.222 38.8956 237.907 38.7979 238.592 38.5043C227.634 60.3252 218.339 82.6354 215.991 107.196C214.817 119.232 214.328 131.365 214.034 143.401C212.958 179.313 218.731 214.343 229.982 248.396C231.156 251.918 233.015 255.245 235.461 260.627C239.081 256.028 241.527 253.191 243.582 250.157C256.595 230.489 267.063 209.451 274.695 187.239C279.196 174.029 283.109 160.329 285.164 146.434C290.251 111.11 285.164 76.9599 268.433 45.0603C261.584 32.1439 258.551 31.0675 243.876 33.416C242.897 32.6332 241.821 31.8504 240.842 31.1654C239.179 33.5139 237.516 35.8624 235.853 38.113C235.266 39.0915 234.581 40.0699 233.994 41.0484L233.896 41.1463ZM515.674 113.948L515.478 113.752C516.456 113.165 517.533 112.578 518.511 111.991C519.881 111.795 521.348 111.502 522.718 111.306C475.364 166.298 483.191 254.365 502.172 289.2C505.205 285.677 508.042 282.742 510.586 279.513C529.273 255.343 541.797 228.043 550.7 199.176C557.647 176.768 562.539 153.773 558.919 129.898C555.494 107.587 550.309 101.716 527.219 106.609L531.426 100.836C530.741 100.249 530.056 99.6614 529.371 98.9764C525.36 102.891 521.348 106.805 517.337 110.719C516.75 111.697 516.163 112.774 515.576 113.752L515.674 113.948ZM262.074 254.854L261.976 254.756H262.074V254.854ZM184.585 348.694C185.367 347.911 186.248 347.03 187.031 346.247C187.813 345.464 188.596 344.78 189.281 343.997C190.064 343.214 190.846 342.431 191.629 341.648C202.294 336.853 208.947 327.655 216.089 319.142C219.611 315.718 223.916 312.782 223.134 306.324C220.101 310.042 217.165 313.76 214.132 317.479C206.696 325.601 199.163 333.722 191.727 341.844C190.944 342.627 190.162 343.41 189.379 344.192C188.596 344.975 187.911 345.66 187.129 346.443C186.346 347.226 185.465 348.106 184.683 348.889L184.585 348.791V348.694ZM259.725 276.186L259.628 276.088H259.725V276.186ZM482.8 341.844C483.582 341.061 484.365 340.278 485.148 339.495C485.833 339.3 486.42 339.202 487.105 339.006C486.811 338.615 486.615 338.321 486.322 337.93C485.93 338.517 485.637 339.006 485.246 339.593C484.463 340.376 483.68 341.159 482.897 341.942L482.8 341.844ZM532.111 290.374L532.013 290.276H532.111V290.374ZM116.391 386.562C117.956 385.779 119.619 384.996 121.185 384.311C122.652 383.92 124.316 383.724 125.588 382.942C162.962 362.099 193.195 333.037 219.807 299.964C220.59 298.985 220.1 296.832 220.198 294.875C218.437 295.364 217.459 295.267 217.067 295.756C215.111 297.713 213.252 299.67 211.491 301.725C187.129 330.395 159.929 356.032 128.816 377.266C125.979 379.223 123.729 381.963 121.283 384.409C119.717 385.192 118.054 385.975 116.488 386.66L116.293 386.562H116.391ZM252.583 269.434C251.898 271.097 251.213 272.761 250.529 274.326C249.355 274.914 248.278 275.501 247.104 276.088C247.496 276.479 247.789 276.87 248.18 277.262C248.963 276.186 249.648 275.207 250.431 274.131C251.116 272.467 251.801 270.902 252.485 269.238C253.366 268.357 254.246 267.477 255.127 266.596C255.812 265.03 256.595 263.563 257.28 261.997L257.377 262.095C256.693 263.661 255.91 265.128 255.225 266.694C254.344 267.575 253.464 268.455 252.583 269.336V269.434ZM243.191 262.389C242.506 263.954 241.723 265.422 241.038 266.988L240.842 266.89C241.527 265.324 242.31 263.856 242.995 262.291C243.876 261.41 244.756 260.627 245.637 259.747C247.887 257.496 250.137 255.148 252.388 252.897C251.801 252.408 251.116 252.016 250.529 251.527C248.963 254.267 247.3 257.104 245.734 259.844C244.854 260.725 243.973 261.606 243.093 262.389H243.191ZM226.851 34.2966C229.2 32.4374 233.407 32.0461 231.939 25.3922C229.689 29.4041 228.319 31.9482 226.949 34.4924H226.851V34.2966ZM513.326 290.276C511.467 292.331 509.608 294.484 507.749 296.539C508.434 297.028 509.118 297.419 509.803 297.909C510.977 295.267 512.054 292.723 513.228 290.081H513.326V290.276ZM503.933 109.349C507.847 105.826 513.423 103.771 516.652 96.2366C508.923 99.4657 505.498 103.576 504.031 109.447L503.933 109.349ZM525.066 299.768C520.37 303.095 516.554 307.204 513.228 311.706C514.01 312.293 514.695 312.88 515.478 313.467C518.609 308.868 521.74 304.269 524.871 299.67H524.968L525.066 299.768ZM480.843 324.426C464.895 335.386 449.045 346.345 433.195 357.402C433.195 357.402 433.782 358.577 434.076 359.164C452.372 353.978 477.712 336.266 480.843 324.426ZM519.881 82.1461C507.553 81.2655 498.552 87.3321 495.812 98.6829C504.129 93.2032 513.717 90.7571 519.881 82.1461ZM233.7 14.9221C223.623 14.7263 220.394 17.2705 217.459 29.3062C223.818 23.6308 230.569 21.9674 233.7 14.9221ZM454.622 372.178C454.426 372.765 454.23 373.352 454.035 373.939C454.426 373.939 455.013 374.135 455.013 373.939C455.307 373.45 455.405 372.765 455.6 372.178C455.209 372.178 454.915 372.178 454.524 372.178H454.622ZM574.084 212.386C574.084 212.386 573.888 211.897 573.79 211.604C573.497 211.701 573.203 211.799 573.105 211.897C573.105 212.093 573.301 212.386 573.399 212.582L574.182 212.288L574.084 212.386ZM200.043 101.618V100.934L199.359 101.325L200.043 101.618Z" fill="black"/>
<path d="M795.006 370.124C799.604 366.014 804.203 361.904 809.584 357.207C806.062 366.601 793.44 379.126 780.917 386.269V386.465C784.928 381.768 788.94 376.973 792.853 372.276L792.658 372.472C793.538 371.591 794.419 370.711 795.202 369.928L795.006 370.221V370.124Z" fill="black"/>
<path d="M1597.58 350.162C1594.75 350.162 1592.89 350.162 1591.03 350.162C1592.2 349.868 1593.38 349.477 1594.55 349.281C1595.23 349.281 1595.92 349.673 1597.49 350.162H1597.58Z" fill="black"/>
<path d="M1020.33 322.861C1015.73 325.308 1011.13 327.754 1006.53 330.2L1006.34 329.907C1011.04 327.656 1015.83 325.308 1020.53 323.057L1020.33 322.861Z" fill="black"/>
<path d="M186.835 362.98C183.704 365.231 180.671 367.481 177.541 369.732L177.638 369.927C178.421 368.264 179.204 366.698 180.084 365.035L179.889 365.231C180.769 364.35 181.65 363.469 182.433 362.687L182.237 362.882C183.802 362.882 185.466 363.078 187.031 363.078L186.933 362.882L186.835 362.98Z" fill="black"/>
<path d="M776.221 391.063C773.09 393.412 769.959 395.76 766.926 398.011V398.207C770.057 395.858 773.188 393.51 776.318 391.161H776.123L776.221 391.063Z" fill="black"/>
<path d="M1473.91 396.054C1470 397.522 1466.09 398.892 1462.17 400.359L1462.37 400.555C1466.09 398.892 1469.8 397.228 1473.52 395.467L1474.01 396.054H1473.91Z" fill="black"/>
<path d="M766.926 398.011C763.795 400.359 760.664 402.708 757.533 405.154L757.631 405.252C760.762 402.903 763.893 400.555 767.024 398.206V398.011H766.926Z" fill="black"/>
<path d="M175.095 372.276C172.747 373.842 170.398 375.408 168.05 376.973L168.246 377.169C168.246 376.288 168.246 375.408 168.246 374.625L168.05 374.82C168.931 373.94 169.811 373.059 170.594 372.276L170.398 372.472C172.062 372.472 173.627 372.472 175.29 372.472H175.095V372.276Z" fill="black"/>
<path d="M1625.96 343.899C1625.96 343.899 1626.06 343.899 1626.15 343.998L1625.96 343.899Z" fill="black"/>
<path d="M1246.24 384.116L1246.83 383.725L1246.14 384.018L1246.24 384.116Z" fill="black"/>
<path d="M1255.44 379.223C1256.81 378.44 1258.28 377.56 1259.65 376.777L1259.45 376.679C1258.08 377.462 1256.71 378.343 1255.24 379.125L1255.44 379.223Z" fill="black"/>
<path d="M1246.14 384.018C1244.48 384.801 1242.72 385.485 1241.06 386.268L1241.15 386.366C1242.82 385.583 1244.58 384.898 1246.24 384.116L1246.14 383.92V384.018Z" fill="black"/>
<path d="M1264.83 374.625C1263.07 375.309 1261.31 375.994 1259.55 376.679L1259.74 376.777C1261.5 376.092 1263.27 375.407 1265.03 374.722L1264.93 374.625H1264.83Z" fill="black"/>
<path d="M1025.03 320.513C1023.46 321.296 1021.9 322.078 1020.33 322.861L1020.53 323.057C1022.09 322.274 1023.66 321.491 1025.22 320.708L1025.03 320.513Z" fill="black"/>
<path d="M1462.17 400.359C1462.17 400.359 1462.27 400.458 1462.37 400.557L1462.17 400.359Z" fill="black"/>
<path d="M1029.72 318.164C1028.16 318.947 1026.59 319.73 1025.03 320.512L1025.22 320.708C1026.79 319.925 1028.35 319.143 1029.92 318.36L1029.72 318.164Z" fill="black"/>
<path d="M1034.52 315.914C1032.95 316.696 1031.39 317.479 1029.82 318.164L1030.02 318.36C1031.58 317.577 1033.15 316.794 1034.71 316.011H1034.52V315.914Z" fill="black"/>
<path d="M1041.66 311.119C1040.09 311.902 1038.43 312.587 1036.87 313.37V313.565C1038.53 312.783 1040.19 312 1041.76 311.217V311.119H1041.66Z" fill="black"/>
<path d="M1626.05 343.997L1626.64 343.703L1625.96 343.899L1626.05 343.997Z" fill="black"/>
<path d="M233.994 315.62L231.646 318.066L231.744 318.164C232.527 317.382 233.309 316.599 234.092 315.816L233.994 315.62Z" fill="black"/>
<path d="M1036.86 313.369C1036.08 314.25 1035.3 315.033 1034.52 315.913L1034.71 316.011C1035.5 315.228 1036.28 314.446 1037.06 313.565L1036.96 313.369H1036.86Z" fill="black"/>
<path d="M231.646 318.066C230.863 318.849 230.081 319.632 229.298 320.415L229.396 320.513C230.178 319.73 230.961 318.947 231.744 318.164L231.646 318.066Z" fill="black"/>
<path d="M229.298 320.415C228.515 321.296 227.634 322.078 226.852 322.959C227.634 322.078 228.515 321.296 229.298 320.513L229.2 320.415H229.298Z" fill="black"/>
<path d="M527.415 320.513C526.632 321.296 525.751 322.078 524.969 322.861L525.164 322.959C525.947 322.176 526.73 321.393 527.513 320.611L527.415 320.513Z" fill="black"/>
<path d="M226.852 322.959L226.362 323.155L226.95 322.959H226.852Z" fill="black"/>
<path d="M255.029 287.635C254.247 288.417 253.366 289.298 252.583 290.081L252.779 290.179C252.779 289.298 252.779 288.417 252.779 287.537L252.681 287.732C253.562 287.732 254.345 287.732 255.225 287.732V287.537L255.029 287.635Z" fill="black"/>
<path d="M217.557 334.603C217.557 334.603 217.948 334.701 218.144 334.798C217.948 334.798 217.655 334.603 217.459 334.505V334.603H217.557Z" fill="black"/>
<path d="M215.111 337.049C215.894 336.267 216.676 335.484 217.459 334.701V334.603C216.676 335.386 215.894 336.169 215.111 337.049Z" fill="black"/>
<path d="M212.86 339.3C213.643 338.518 214.426 337.735 215.209 337.05C214.426 337.833 213.643 338.518 212.86 339.3Z" fill="black"/>
<path d="M212.763 339.202C211.98 339.985 211.197 340.768 210.415 341.453L210.512 341.551C211.295 340.768 212.078 339.985 212.763 339.202Z" fill="black"/>
<path d="M210.415 341.453C209.632 342.236 208.849 343.019 208.066 343.801L208.164 343.899C208.947 343.117 209.73 342.334 210.512 341.551L210.415 341.453Z" fill="black"/>
<path d="M205.621 346.443C206.501 345.661 207.382 344.78 208.262 343.997L208.164 343.899C207.382 344.682 206.599 345.563 205.718 346.346L205.621 346.443Z" fill="black"/>
<path d="M205.718 346.346L205.621 347.031V346.444L205.718 346.346Z" fill="black"/>
<path d="M194.173 355.739C194.956 354.957 195.738 354.174 196.521 353.391L196.423 353.195C195.641 353.978 194.858 354.761 194.075 355.544L194.271 355.739H194.173Z" fill="black"/>
<path d="M194.076 355.543C193.293 356.326 192.51 357.109 191.728 357.892L191.923 358.088C192.706 357.305 193.489 356.522 194.271 355.739L194.076 355.543Z" fill="black"/>
<path d="M191.629 357.989C190.847 358.772 190.064 359.555 189.281 360.338H189.477C190.26 359.653 191.042 358.87 191.825 358.087L191.629 357.892V357.989Z" fill="black"/>
<path d="M189.379 360.338C188.499 361.219 187.618 362.099 186.835 362.98L186.933 363.176C187.814 362.295 188.694 361.414 189.477 360.534L189.281 360.338H189.379Z" fill="black"/>
<path d="M177.443 369.83C176.66 370.613 175.877 371.494 174.997 372.276L175.192 372.374C175.975 371.591 176.758 370.809 177.54 370.026L177.443 369.83Z" fill="black"/>
<path d="M780.917 386.269C780.134 387.051 779.352 387.834 778.569 388.617L778.667 388.813C779.449 388.03 780.232 387.247 781.015 386.464L780.917 386.269Z" fill="black"/>
<path d="M778.569 388.617C777.786 389.4 777.003 390.183 776.221 391.063L776.416 391.161C777.199 390.378 777.982 389.596 778.765 388.813L778.667 388.617H778.569Z" fill="black"/>
<path d="M811.345 43.5928C809.486 45.3541 807.529 47.0176 805.67 48.7789C805.377 48.3875 805.083 47.996 804.888 47.6046C807.138 46.3325 809.29 45.0604 811.541 43.7884L811.443 43.5928H811.345Z" fill="black"/>
<path d="M827.586 33.025C828.76 32.7315 830.032 32.5357 831.206 32.2422C831.206 32.2422 831.5 33.025 831.402 33.1228C830.228 33.6121 829.054 34.0035 827.88 34.4927C827.782 34.0035 827.586 33.5143 827.488 33.025H827.586Z" fill="black"/>
<path d="M818.487 38.7979C817.019 39.4828 815.454 40.1678 813.986 40.8528L814.182 41.0484C815.65 40.2656 817.117 39.4828 818.683 38.7979H818.585H818.487Z" fill="black"/>
<path d="M813.987 40.853C813.106 41.7337 812.226 42.7122 811.443 43.5929L811.541 43.7885C812.421 42.9078 813.302 41.9293 814.182 41.0486L813.987 40.853Z" fill="black"/>
<path d="M818.585 38.7002H818.977L818.487 38.7981L818.585 38.7002Z" fill="black"/>
<path d="M1093.81 75.9817C1095.28 75.2967 1096.74 74.6117 1098.11 73.9268C1096.64 74.6117 1095.18 75.2967 1093.81 75.9817Z" fill="black"/>
<path d="M241.625 35.8626C241.625 35.8626 242.506 35.0799 242.8 34.6885C242.408 35.0799 241.919 35.4712 241.625 35.8626Z" fill="black"/>
<path d="M524.969 109.349C525.849 108.468 526.73 107.588 527.513 106.707C526.632 107.588 525.751 108.468 524.969 109.349Z" fill="black"/>
</svg>
